VistasTerritorios/img/logo.svg<svg xmlns="http://www.w3.org/2000/svg" xmlns:xlink="http://www.w3.org/1999/xlink" width="200" zoomAndPan="magnify" viewBox="0 0 150 37.5" height="50" preserveAspectRatio="xMidYMid meet" version="1.0"><defs><g/><clipPath id="4062298fa3"><path d="M 0.988281 1 L 37 1 L 37 37 L 0.988281 37 Z M 0.988281 1 " clip-rule="nonzero"/></clipPath><clipPath id="3e8bbb771e"><path d="M 18.601562 1.765625 L 36.398438 19.558594 L 18.601562 37.351562 L 0.808594 19.558594 Z M 18.601562 1.765625 " clip-rule="nonzero"/></clipPath><clipPath id="973ce8325f"><path d="M 18.601562 1.765625 L 36.398438 19.558594 L 18.601562 37.351562 L 0.808594 19.558594 Z M 18.601562 1.765625 " clip-rule="nonzero"/></clipPath><clipPath id="462743b24a"><path d="M 2 0 L 35 0 L 35 33 L 2 33 Z M 2 0 " clip-rule="nonzero"/></clipPath><clipPath id="848c6df682"><path d="M 18.605469 0 L 34.941406 16.332031 L 18.605469 32.664062 L 2.273438 16.332031 Z M 18.605469 0 " clip-rule="nonzero"/></clipPath><clipPath id="9a8ef9ebe8"><path d="M 18.605469 0 L 34.941406 16.332031 L 18.605469 32.664062 L 2.273438 16.332031 Z M 18.605469 0 " clip-rule="nonzero"/></clipPath><clipPath id="ed8eed4685"><path d="M 18.605469 0 L 34.941406 16.332031 L 18.605469 32.664062 L 2.273438 16.332031 Z M 18.605469 0 " clip-rule="nonzero"/></clipPath><linearGradient x1="-128.00001" gradientTransform="matrix(0.0637984, 0.0637984, -0.0637984, 0.0637984, 18.607412, 0.0006375)" y1="0" x2="383.999973" gradientUnits="userSpaceOnUse" y2="0" id="aeaf6e94e2"><stop stop-opacity="1" stop-color="rgb(0%, 28.999329%, 67.799377%)" offset="0"/><stop stop-opacity="1" stop-color="rgb(0%, 28.999329%, 67.799377%)" offset="0.25"/><stop stop-opacity="1" stop-color="rgb(0.621033%, 29.103088%, 67.973328%)" offset="0.253906"/><stop stop-opacity="1" stop-color="rgb(1.243591%, 29.208374%, 68.148804%)" offset="0.257812"/><stop stop-opacity="1" stop-color="rgb(1.864624%, 29.312134%, 68.32428%)" offset="0.261719"/><stop stop-opacity="1" stop-color="rgb(2.487183%, 29.417419%, 68.499756%)" offset="0.265625"/><stop stop-opacity="1" stop-color="rgb(3.108215%, 29.522705%, 68.673706%)" offset="0.269531"/><stop stop-opacity="1" stop-color="rgb(3.730774%, 29.627991%, 68.849182%)" offset="0.273437"/><stop stop-opacity="1" stop-color="rgb(4.351807%, 29.73175%, 69.023132%)" offset="0.277344"/><stop stop-opacity="1" stop-color="rgb(4.974365%, 29.837036%, 69.198608%)" offset="0.28125"/><stop stop-opacity="1" stop-color="rgb(5.595398%, 29.940796%, 69.374084%)" offset="0.285156"/><stop stop-opacity="1" stop-color="rgb(6.217957%, 30.046082%, 69.549561%)" offset="0.289062"/><stop stop-opacity="1" stop-color="rgb(6.838989%, 30.149841%, 69.723511%)" offset="0.292969"/><stop stop-opacity="1" stop-color="rgb(7.461548%, 30.255127%, 69.898987%)" offset="0.296875"/><stop stop-opacity="1" stop-color="rgb(8.082581%, 30.358887%, 70.074463%)" offset="0.300781"/><stop stop-opacity="1" stop-color="rgb(8.705139%, 30.464172%, 70.249939%)" offset="0.304688"/><stop stop-opacity="1" stop-color="rgb(9.326172%, 30.569458%, 70.423889%)" offset="0.308594"/><stop stop-opacity="1" stop-color="rgb(9.94873%, 30.674744%, 70.599365%)" offset="0.3125"/><stop stop-opacity="1" stop-color="rgb(10.569763%, 30.778503%, 70.773315%)" offset="0.316406"/><stop stop-opacity="1" stop-color="rgb(11.192322%, 30.883789%, 70.948792%)" offset="0.320312"/><stop stop-opacity="1" stop-color="rgb(11.81488%, 30.987549%, 71.124268%)" offset="0.324219"/><stop stop-opacity="1" stop-color="rgb(12.437439%, 31.092834%, 71.299744%)" offset="0.328125"/><stop stop-opacity="1" stop-color="rgb(13.058472%, 31.196594%, 71.473694%)" offset="0.332031"/><stop stop-opacity="1" stop-color="rgb(13.68103%, 31.30188%, 71.64917%)" offset="0.335938"/><stop stop-opacity="1" stop-color="rgb(14.302063%, 31.407166%, 71.82312%)" offset="0.339844"/><stop stop-opacity="1" stop-color="rgb(14.924622%, 31.512451%, 71.998596%)" offset="0.34375"/><stop stop-opacity="1" stop-color="rgb(15.545654%, 31.616211%, 72.174072%)" offset="0.347656"/><stop stop-opacity="1" stop-color="rgb(16.168213%, 31.721497%, 72.349548%)" offset="0.351562"/><stop stop-opacity="1" stop-color="rgb(16.789246%, 31.825256%, 72.523499%)" offset="0.355469"/><stop stop-opacity="1" stop-color="rgb(17.411804%, 31.930542%, 72.698975%)" offset="0.359375"/><stop stop-opacity="1" stop-color="rgb(18.032837%, 32.034302%, 72.874451%)" offset="0.363281"/><stop stop-opacity="1" stop-color="rgb(18.655396%, 32.139587%, 73.049927%)" offset="0.367187"/><stop stop-opacity="1" stop-color="rgb(19.276428%, 32.243347%, 73.223877%)" offset="0.371094"/><stop stop-opacity="1" stop-color="rgb(19.898987%, 32.348633%, 73.399353%)" offset="0.375"/><stop stop-opacity="1" stop-color="rgb(20.52002%, 32.453918%, 73.573303%)" offset="0.378906"/><stop stop-opacity="1" stop-color="rgb(21.142578%, 32.559204%, 73.748779%)" offset="0.382812"/><stop stop-opacity="1" stop-color="rgb(21.763611%, 32.662964%, 73.924255%)" offset="0.386719"/><stop stop-opacity="1" stop-color="rgb(22.386169%, 32.76825%, 74.099731%)" offset="0.390625"/><stop stop-opacity="1" stop-color="rgb(23.007202%, 32.872009%, 74.273682%)" offset="0.394531"/><stop stop-opacity="1" stop-color="rgb(23.629761%, 32.977295%, 74.449158%)" offset="0.398438"/><stop stop-opacity="1" stop-color="rgb(24.252319%, 33.081055%, 74.623108%)" offset="0.402344"/><stop stop-opacity="1" stop-color="rgb(24.874878%, 33.18634%, 74.798584%)" offset="0.40625"/><stop stop-opacity="1" stop-color="rgb(25.495911%, 33.2901%, 74.97406%)" offset="0.410156"/><stop stop-opacity="1" stop-color="rgb(26.118469%, 33.395386%, 75.149536%)" offset="0.414062"/><stop stop-opacity="1" stop-color="rgb(26.739502%, 33.500671%, 75.323486%)" offset="0.417969"/><stop stop-opacity="1" stop-color="rgb(27.362061%, 33.605957%, 75.498962%)" offset="0.421875"/><stop stop-opacity="1" stop-color="rgb(27.983093%, 33.709717%, 75.674438%)" offset="0.425781"/><stop stop-opacity="1" stop-color="rgb(28.605652%, 33.815002%, 75.849915%)" offset="0.429688"/><stop stop-opacity="1" stop-color="rgb(29.226685%, 33.918762%, 76.023865%)" offset="0.433594"/><stop stop-opacity="1" stop-color="rgb(29.849243%, 34.024048%, 76.199341%)" offset="0.4375"/><stop stop-opacity="1" stop-color="rgb(30.470276%, 34.127808%, 76.373291%)" offset="0.441406"/><stop stop-opacity="1" stop-color="rgb(31.092834%, 34.233093%, 76.548767%)" offset="0.445312"/><stop stop-opacity="1" stop-color="rgb(31.713867%, 34.338379%, 76.724243%)" offset="0.449219"/><stop stop-opacity="1" stop-color="rgb(32.336426%, 34.443665%, 76.899719%)" offset="0.453125"/><stop stop-opacity="1" stop-color="rgb(32.957458%, 34.547424%, 77.073669%)" offset="0.457031"/><stop stop-opacity="1" stop-color="rgb(33.580017%, 34.65271%, 77.249146%)" offset="0.460938"/><stop stop-opacity="1" stop-color="rgb(34.20105%, 34.75647%, 77.423096%)" offset="0.464844"/><stop stop-opacity="1" stop-color="rgb(34.823608%, 34.861755%, 77.598572%)" offset="0.46875"/><stop stop-opacity="1" stop-color="rgb(35.446167%, 34.965515%, 77.774048%)" offset="0.472656"/><stop stop-opacity="1" stop-color="rgb(36.068726%, 35.070801%, 77.949524%)" offset="0.476562"/><stop stop-opacity="1" stop-color="rgb(36.689758%, 35.174561%, 78.123474%)" offset="0.480469"/><stop stop-opacity="1" stop-color="rgb(37.312317%, 35.279846%, 78.29895%)" offset="0.484375"/><stop stop-opacity="1" stop-color="rgb(37.93335%, 35.385132%, 78.474426%)" offset="0.488281"/><stop stop-opacity="1" stop-color="rgb(38.555908%, 35.490417%, 78.649902%)" offset="0.492188"/><stop stop-opacity="1" stop-color="rgb(39.176941%, 35.594177%, 78.823853%)" offset="0.496094"/><stop stop-opacity="1" stop-color="rgb(39.7995%, 35.699463%, 78.999329%)" offset="0.5"/><stop stop-opacity="1" stop-color="rgb(40.420532%, 35.803223%, 79.173279%)" offset="0.503906"/><stop stop-opacity="1" stop-color="rgb(41.043091%, 35.908508%, 79.348755%)" offset="0.507812"/><stop stop-opacity="1" stop-color="rgb(41.664124%, 36.012268%, 79.524231%)" offset="0.511719"/><stop stop-opacity="1" stop-color="rgb(42.286682%, 36.117554%, 79.699707%)" offset="0.515625"/><stop stop-opacity="1" stop-color="rgb(42.907715%, 36.221313%, 79.873657%)" offset="0.519531"/><stop stop-opacity="1" stop-color="rgb(43.530273%, 36.326599%, 80.049133%)" offset="0.523438"/><stop stop-opacity="1" stop-color="rgb(44.151306%, 36.431885%, 80.223083%)" offset="0.527344"/><stop stop-opacity="1" stop-color="rgb(44.773865%, 36.53717%, 80.39856%)" offset="0.53125"/><stop stop-opacity="1" stop-color="rgb(45.394897%, 36.64093%, 80.574036%)" offset="0.535156"/><stop stop-opacity="1" stop-color="rgb(46.017456%, 36.746216%, 80.749512%)" offset="0.539062"/><stop stop-opacity="1" stop-color="rgb(46.638489%, 36.849976%, 80.923462%)" offset="0.542969"/><stop stop-opacity="1" stop-color="rgb(47.261047%, 36.955261%, 81.098938%)" offset="0.546875"/><stop stop-opacity="1" stop-color="rgb(47.883606%, 37.059021%, 81.274414%)" offset="0.550781"/><stop stop-opacity="1" stop-color="rgb(48.506165%, 37.164307%, 81.44989%)" offset="0.554688"/><stop stop-opacity="1" stop-color="rgb(49.127197%, 37.269592%, 81.62384%)" offset="0.558594"/><stop stop-opacity="1" stop-color="rgb(49.749756%, 37.374878%, 81.799316%)" offset="0.5625"/><stop stop-opacity="1" stop-color="rgb(50.370789%, 37.478638%, 81.973267%)" offset="0.566406"/><stop stop-opacity="1" stop-color="rgb(50.993347%, 37.583923%, 82.148743%)" offset="0.570312"/><stop stop-opacity="1" stop-color="rgb(51.61438%, 37.687683%, 82.324219%)" offset="0.574219"/><stop stop-opacity="1" stop-color="rgb(52.236938%, 37.792969%, 82.499695%)" offset="0.578125"/><stop stop-opacity="1" stop-color="rgb(52.857971%, 37.896729%, 82.673645%)" offset="0.582031"/><stop stop-opacity="1" stop-color="rgb(53.48053%, 38.002014%, 82.849121%)" offset="0.585938"/><stop stop-opacity="1" stop-color="rgb(54.101562%, 38.105774%, 83.023071%)" offset="0.589844"/><stop stop-opacity="1" stop-color="rgb(54.724121%, 38.21106%, 83.198547%)" offset="0.59375"/><stop stop-opacity="1" stop-color="rgb(55.345154%, 38.316345%, 83.374023%)" offset="0.597656"/><stop stop-opacity="1" stop-color="rgb(55.967712%, 38.421631%, 83.5495%)" offset="0.601562"/><stop stop-opacity="1" stop-color="rgb(56.588745%, 38.525391%, 83.72345%)" offset="0.605469"/><stop stop-opacity="1" stop-color="rgb(57.211304%, 38.630676%, 83.898926%)" offset="0.609375"/><stop stop-opacity="1" stop-color="rgb(57.832336%, 38.734436%, 84.074402%)" offset="0.613281"/><stop stop-opacity="1" stop-color="rgb(58.454895%, 38.839722%, 84.249878%)" offset="0.617188"/><stop stop-opacity="1" stop-color="rgb(59.075928%, 38.943481%, 84.423828%)" offset="0.621094"/><stop stop-opacity="1" stop-color="rgb(59.698486%, 39.048767%, 84.599304%)" offset="0.625"/><stop stop-opacity="1" stop-color="rgb(60.321045%, 39.154053%, 84.773254%)" offset="0.628906"/><stop stop-opacity="1" stop-color="rgb(60.943604%, 39.259338%, 84.94873%)" offset="0.632812"/><stop stop-opacity="1" stop-color="rgb(61.564636%, 39.363098%, 85.124207%)" offset="0.636719"/><stop stop-opacity="1" stop-color="rgb(62.187195%, 39.468384%, 85.299683%)" offset="0.640625"/><stop stop-opacity="1" stop-color="rgb(62.808228%, 39.572144%, 85.473633%)" offset="0.644531"/><stop stop-opacity="1" stop-color="rgb(63.430786%, 39.677429%, 85.649109%)" offset="0.648438"/><stop stop-opacity="1" stop-color="rgb(64.051819%, 39.781189%, 85.823059%)" offset="0.652344"/><stop stop-opacity="1" stop-color="rgb(64.674377%, 39.886475%, 85.998535%)" offset="0.65625"/><stop stop-opacity="1" stop-color="rgb(65.29541%, 39.990234%, 86.174011%)" offset="0.660156"/><stop stop-opacity="1" stop-color="rgb(65.917969%, 40.09552%, 86.349487%)" offset="0.664062"/><stop stop-opacity="1" stop-color="rgb(66.539001%, 40.200806%, 86.523438%)" offset="0.667969"/><stop stop-opacity="1" stop-color="rgb(67.16156%, 40.306091%, 86.698914%)" offset="0.671875"/><stop stop-opacity="1" stop-color="rgb(67.782593%, 40.409851%, 86.87439%)" offset="0.675781"/><stop stop-opacity="1" stop-color="rgb(68.405151%, 40.515137%, 87.049866%)" offset="0.679688"/><stop stop-opacity="1" stop-color="rgb(69.026184%, 40.618896%, 87.223816%)" offset="0.683594"/><stop stop-opacity="1" stop-color="rgb(69.648743%, 40.724182%, 87.399292%)" offset="0.6875"/><stop stop-opacity="1" stop-color="rgb(70.269775%, 40.827942%, 87.573242%)" offset="0.691406"/><stop stop-opacity="1" stop-color="rgb(70.892334%, 40.933228%, 87.748718%)" offset="0.695312"/><stop stop-opacity="1" stop-color="rgb(71.514893%, 41.036987%, 87.924194%)" offset="0.699219"/><stop stop-opacity="1" stop-color="rgb(72.137451%, 41.142273%, 88.09967%)" offset="0.703125"/><stop stop-opacity="1" stop-color="rgb(72.758484%, 41.247559%, 88.273621%)" offset="0.707031"/><stop stop-opacity="1" stop-color="rgb(73.381042%, 41.352844%, 88.449097%)" offset="0.710938"/><stop stop-opacity="1" stop-color="rgb(74.002075%, 41.456604%, 88.623047%)" offset="0.714844"/><stop stop-opacity="1" stop-color="rgb(74.624634%, 41.56189%, 88.798523%)" offset="0.71875"/><stop stop-opacity="1" stop-color="rgb(75.245667%, 41.665649%, 88.973999%)" offset="0.722656"/><stop stop-opacity="1" stop-color="rgb(75.868225%, 41.770935%, 89.149475%)" offset="0.726562"/><stop stop-opacity="1" stop-color="rgb(76.489258%, 41.874695%, 89.323425%)" offset="0.730469"/><stop stop-opacity="1" stop-color="rgb(77.111816%, 41.97998%, 89.498901%)" offset="0.734375"/><stop stop-opacity="1" stop-color="rgb(77.732849%, 42.085266%, 89.674377%)" offset="0.738281"/><stop stop-opacity="1" stop-color="rgb(78.355408%, 42.190552%, 89.849854%)" offset="0.742188"/><stop stop-opacity="1" stop-color="rgb(78.97644%, 42.294312%, 90.023804%)" offset="0.746094"/><stop stop-opacity="1" stop-color="rgb(79.598999%, 42.399597%, 90.19928%)" offset="0.75"/><stop stop-opacity="1" stop-color="rgb(79.598999%, 42.399597%, 90.19928%)" offset="1"/></linearGradient><clipPath id="334b567ca0"><path d="M 5.367188 9.953125 L 32.75 9.953125 L 32.75 21.796875 L 5.367188 21.796875 Z M 5.367188 9.953125 " clip-rule="nonzero"/></clipPath></defs><g clip-path="url(#4062298fa3)"><g clip-path="url(#3e8bbb771e)"><g clip-path="url(#973ce8325f)"><path fill="#69457b" d="M 2.734375 19.378906 L 18.601562 35.25 L 34.472656 19.378906 L 18.601562 3.507812 Z M 18.601562 36.992188 L 0.988281 19.378906 L 18.601562 1.765625 L 36.21875 19.378906 L 18.601562 36.992188 " fill-opacity="1" fill-rule="nonzero"/></g></g></g><g clip-path="url(#462743b24a)"><g clip-path="url(#848c6df682)"><g clip-path="url(#9a8ef9ebe8)"><g clip-path="url(#ed8eed4685)"><path fill="url(#aeaf6e94e2)" d="M 18.605469 -16.332031 L -14.058594 16.332031 L 18.605469 48.996094 L 51.273438 16.332031 Z M 18.605469 -16.332031 " fill-rule="nonzero"/></g></g></g></g><g clip-path="url(#334b567ca0)"><path fill="#ffffff" d="M 27.792969 18.277344 C 27.792969 18.277344 27.792969 18.277344 27.796875 18.273438 C 27.796875 18.277344 27.792969 18.277344 27.792969 18.277344 Z M 26.605469 14.445312 C 26.605469 14.445312 26.605469 14.445312 26.609375 14.449219 C 26.605469 14.445312 26.605469 14.445312 26.605469 14.445312 Z M 25.632812 17.5625 C 25.632812 17.566406 25.628906 17.566406 25.632812 17.5625 Z M 24.730469 13.777344 C 24.730469 13.773438 24.730469 13.773438 24.730469 13.777344 Z M 23.621094 20.015625 C 23.621094 20.015625 23.621094 20.015625 23.621094 20.011719 C 23.621094 20.015625 23.621094 20.015625 23.621094 20.015625 Z M 22.1875 10.820312 Z M 20.03125 18.773438 C 20.03125 18.773438 20.03125 18.773438 20.03125 18.777344 C 20.03125 18.777344 20.03125 18.773438 20.03125 18.773438 Z M 17.734375 18.921875 C 17.734375 18.921875 17.734375 18.925781 17.734375 18.925781 C 17.734375 18.925781 17.734375 18.921875 17.734375 18.921875 Z M 16.789062 15.21875 C 16.789062 15.21875 16.789062 15.214844 16.789062 15.21875 Z M 32.90625 16.507812 C 32.90625 16.507812 32.878906 16.515625 32.820312 16.527344 C 32.761719 16.535156 32.675781 16.550781 32.5625 16.5625 C 32.449219 16.578125 32.308594 16.589844 32.136719 16.589844 C 31.96875 16.59375 31.773438 16.585938 31.554688 16.554688 C 31.5 16.542969 31.445312 16.539062 31.386719 16.523438 C 31.371094 16.523438 31.355469 16.519531 31.339844 16.515625 L 31.320312 16.511719 L 31.296875 16.507812 C 31.269531 16.5 31.238281 16.492188 31.210938 16.488281 C 31.089844 16.457031 30.964844 16.421875 30.839844 16.375 C 30.714844 16.328125 30.582031 16.273438 30.453125 16.207031 C 30.320312 16.136719 30.1875 16.0625 30.050781 15.976562 C 29.980469 15.933594 29.910156 15.886719 29.839844 15.84375 C 29.765625 15.796875 29.6875 15.753906 29.605469 15.710938 C 29.519531 15.667969 29.429688 15.632812 29.324219 15.613281 C 29.296875 15.609375 29.269531 15.605469 29.242188 15.601562 C 29.226562 15.601562 29.214844 15.601562 29.199219 15.601562 L 29.160156 15.601562 C 29.152344 15.601562 29.144531 15.601562 29.136719 15.605469 L 29.113281 15.605469 C 29.101562 15.609375 29.085938 15.609375 29.070312 15.613281 L 29.035156 15.621094 L 29.019531 15.625 C 29.003906 15.628906 29.003906 15.628906 28.992188 15.632812 C 28.941406 15.648438 28.886719 15.671875 28.839844 15.699219 C 28.789062 15.726562 28.742188 15.757812 28.703125 15.796875 C 28.660156 15.832031 28.621094 15.871094 28.585938 15.914062 C 28.550781 15.957031 28.515625 16 28.488281 16.046875 C 28.367188 16.226562 28.285156 16.429688 28.21875 16.632812 C 28.148438 16.839844 28.097656 17.054688 28.046875 17.273438 C 28 17.492188 27.957031 17.71875 27.90625 17.9375 C 27.894531 17.992188 27.878906 18.046875 27.863281 18.097656 C 27.859375 18.113281 27.855469 18.128906 27.851562 18.144531 C 27.839844 18.121094 27.832031 18.097656 27.824219 18.074219 C 27.804688 18.019531 27.789062 17.964844 27.773438 17.90625 C 27.746094 17.792969 27.71875 17.671875 27.695312 17.550781 C 27.59375 17.0625 27.519531 16.539062 27.429688 16 C 27.386719 15.730469 27.34375 15.453125 27.289062 15.171875 C 27.261719 15.03125 27.234375 14.886719 27.199219 14.742188 C 27.179688 14.667969 27.160156 14.59375 27.136719 14.519531 C 27.113281 14.445312 27.089844 14.367188 27.050781 14.28125 C 27.027344 14.238281 27.007812 14.195312 26.960938 14.136719 C 26.933594 14.109375 26.902344 14.078125 26.84375 14.046875 C 26.832031 14.03125 26.734375 14.011719 26.730469 14.015625 C 26.683594 14.011719 26.640625 14.019531 26.605469 14.03125 C 26.570312 14.046875 26.542969 14.0625 26.519531 14.078125 C 26.496094 14.09375 26.480469 14.109375 26.46875 14.125 C 26.441406 14.15625 26.421875 14.183594 26.40625 14.207031 C 26.375 14.257812 26.355469 14.300781 26.339844 14.339844 C 26.304688 14.425781 26.28125 14.5 26.257812 14.578125 C 26.234375 14.65625 26.21875 14.734375 26.199219 14.808594 C 26.128906 15.113281 26.074219 15.417969 26.019531 15.726562 C 25.96875 16.035156 25.917969 16.34375 25.859375 16.65625 C 25.84375 16.746094 25.824219 16.839844 25.808594 16.929688 C 25.761719 16.621094 25.722656 16.300781 25.6875 15.976562 C 25.652344 15.636719 25.613281 15.289062 25.574219 14.933594 C 25.554688 14.757812 25.535156 14.582031 25.507812 14.402344 C 25.484375 14.21875 25.457031 14.039062 25.417969 13.847656 C 25.40625 13.800781 25.398438 13.75 25.382812 13.699219 C 25.367188 13.648438 25.355469 13.59375 25.328125 13.53125 C 25.3125 13.496094 25.296875 13.460938 25.265625 13.414062 C 25.246094 13.386719 25.222656 13.359375 25.179688 13.320312 C 25.175781 13.292969 24.992188 13.222656 24.9375 13.238281 C 24.820312 13.242188 24.75 13.289062 24.707031 13.324219 C 24.664062 13.363281 24.644531 13.386719 24.625 13.414062 C 24.59375 13.460938 24.578125 13.496094 24.5625 13.53125 C 24.535156 13.59375 24.519531 13.648438 24.503906 13.699219 C 24.488281 13.75 24.476562 13.800781 24.464844 13.847656 C 24.441406 13.945312 24.421875 14.039062 24.40625 14.132812 C 24.371094 14.324219 24.34375 14.507812 24.316406 14.695312 C 24.292969 14.882812 24.269531 15.070312 24.246094 15.257812 C 24.15625 16.007812 24.082031 16.765625 24 17.535156 C 23.960938 17.902344 23.917969 18.273438 23.875 18.640625 C 23.859375 18.511719 23.84375 18.382812 23.828125 18.253906 C 23.734375 17.441406 23.660156 16.609375 23.585938 15.769531 C 23.511719 14.925781 23.4375 14.070312 23.355469 13.203125 C 23.3125 12.773438 23.265625 12.335938 23.214844 11.894531 C 23.1875 11.675781 23.15625 11.453125 23.121094 11.226562 C 23.105469 11.117188 23.085938 11.003906 23.058594 10.882812 C 23.046875 10.824219 23.035156 10.765625 23.015625 10.703125 C 23.007812 10.667969 23 10.636719 22.988281 10.601562 C 22.980469 10.582031 22.976562 10.566406 22.96875 10.546875 C 22.960938 10.527344 22.953125 10.503906 22.941406 10.480469 C 22.933594 10.457031 22.917969 10.429688 22.898438 10.398438 C 22.875 10.363281 22.859375 10.328125 22.78125 10.261719 C 22.667969 10.171875 22.484375 10.113281 22.316406 10.195312 C 22.171875 10.265625 22.140625 10.332031 22.109375 10.371094 C 22.082031 10.410156 22.066406 10.441406 22.054688 10.46875 C 22.042969 10.496094 22.035156 10.519531 22.027344 10.539062 C 22.011719 10.582031 22.003906 10.617188 21.992188 10.652344 C 21.976562 10.71875 21.960938 10.78125 21.949219 10.84375 C 21.9375 10.902344 21.929688 10.960938 21.921875 11.019531 C 21.882812 11.253906 21.859375 11.480469 21.835938 11.707031 C 21.792969 12.15625 21.757812 12.605469 21.722656 13.054688 C 21.65625 13.957031 21.597656 14.859375 21.519531 15.765625 C 21.507812 15.890625 21.496094 16.015625 21.484375 16.140625 C 21.449219 15.964844 21.417969 15.792969 21.382812 15.617188 C 21.339844 15.382812 21.292969 15.152344 21.226562 14.90625 C 21.210938 14.847656 21.191406 14.785156 21.167969 14.71875 C 21.148438 14.652344 21.125 14.585938 21.085938 14.503906 C 21.074219 14.484375 21.0625 14.464844 21.050781 14.4375 C 21.035156 14.414062 21.019531 14.390625 20.996094 14.359375 C 20.972656 14.328125 20.941406 14.292969 20.886719 14.253906 C 20.867188 14.21875 20.671875 14.15625 20.632812 14.167969 C 20.457031 14.167969 20.394531 14.226562 20.332031 14.269531 C 20.277344 14.3125 20.25 14.351562 20.230469 14.382812 C 20.207031 14.414062 20.191406 14.441406 20.179688 14.46875 C 20.167969 14.492188 20.15625 14.515625 20.148438 14.535156 C 20.132812 14.578125 20.121094 14.613281 20.109375 14.652344 C 20.097656 14.6875 20.085938 14.722656 20.078125 14.753906 C 20.0625 14.820312 20.050781 14.886719 20.039062 14.949219 C 20.015625 15.074219 19.996094 15.195312 19.980469 15.316406 C 19.945312 15.558594 19.921875 15.792969 19.898438 16.03125 C 19.851562 16.503906 19.816406 16.976562 19.773438 17.441406 C 19.765625 17.515625 19.757812 17.589844 19.75 17.660156 C 19.675781 17.261719 19.609375 16.851562 19.542969 16.445312 C 19.464844 15.972656 19.386719 15.5 19.300781 15.023438 C 19.257812 14.785156 19.210938 14.546875 19.152344 14.304688 C 19.125 14.183594 19.09375 14.0625 19.058594 13.9375 C 19.039062 13.875 19.015625 13.808594 18.992188 13.742188 C 18.976562 13.707031 18.964844 13.671875 18.945312 13.636719 C 18.925781 13.597656 18.90625 13.558594 18.875 13.511719 C 18.859375 13.484375 18.835938 13.460938 18.804688 13.429688 C 18.777344 13.398438 18.730469 13.359375 18.652344 13.328125 C 18.539062 13.285156 18.496094 13.296875 18.371094 13.328125 C 18.285156 13.363281 18.242188 13.40625 18.210938 13.4375 C 18.175781 13.472656 18.160156 13.5 18.140625 13.527344 C 18.125 13.550781 18.113281 13.574219 18.105469 13.597656 C 18.082031 13.640625 18.070312 13.679688 18.054688 13.714844 C 18.03125 13.785156 18.011719 13.851562 17.996094 13.917969 C 17.980469 13.984375 17.96875 14.046875 17.957031 14.109375 C 17.910156 14.359375 17.875 14.601562 17.847656 14.84375 C 17.789062 15.328125 17.746094 15.808594 17.703125 16.285156 C 17.660156 16.765625 17.617188 17.242188 17.566406 17.714844 C 17.554688 17.835938 17.539062 17.957031 17.523438 18.074219 C 17.507812 17.976562 17.492188 17.878906 17.476562 17.78125 C 17.398438 17.3125 17.332031 16.835938 17.257812 16.359375 C 17.21875 16.121094 17.179688 15.882812 17.132812 15.640625 C 17.109375 15.519531 17.082031 15.398438 17.050781 15.273438 C 17.035156 15.207031 17.015625 15.144531 16.988281 15.074219 C 16.976562 15.039062 16.960938 15 16.9375 14.957031 C 16.925781 14.933594 16.914062 14.910156 16.894531 14.882812 C 16.871094 14.851562 16.84375 14.816406 16.777344 14.769531 C 16.714844 14.71875 16.539062 14.695312 16.449219 14.75 C 16.355469 14.796875 16.328125 14.84375 16.304688 14.875 C 16.277344 14.910156 16.265625 14.933594 16.253906 14.957031 C 16.242188 14.980469 16.234375 15.003906 16.226562 15.023438 C 16.210938 15.0625 16.199219 15.097656 16.191406 15.132812 C 16.179688 15.167969 16.171875 15.203125 16.164062 15.234375 C 16.136719 15.367188 16.113281 15.488281 16.097656 15.613281 C 16.0625 15.855469 16.039062 16.097656 16.015625 16.339844 C 15.972656 16.820312 15.9375 17.296875 15.90625 17.773438 C 15.878906 18.246094 15.847656 18.722656 15.820312 19.195312 C 15.8125 19.300781 15.804688 19.40625 15.796875 19.511719 C 15.789062 19.433594 15.78125 19.351562 15.777344 19.273438 C 15.691406 18.34375 15.617188 17.414062 15.535156 16.488281 C 15.496094 16.027344 15.453125 15.566406 15.40625 15.105469 C 15.359375 14.644531 15.3125 14.1875 15.25 13.730469 C 15.21875 13.5 15.183594 13.269531 15.136719 13.039062 C 15.113281 12.921875 15.085938 12.804688 15.050781 12.683594 C 15.039062 12.652344 15.027344 12.621094 15.015625 12.585938 C 15.003906 12.554688 14.988281 12.519531 14.964844 12.476562 C 14.953125 12.457031 14.941406 12.433594 14.917969 12.410156 C 14.898438 12.386719 14.871094 12.351562 14.8125 12.320312 C 14.710938 12.269531 14.691406 12.28125 14.574219 12.304688 C 14.5 12.335938 14.46875 12.371094 14.445312 12.394531 C 14.421875 12.421875 14.40625 12.445312 14.394531 12.46875 C 14.382812 12.488281 14.375 12.507812 14.367188 12.527344 C 14.347656 12.5625 14.335938 12.59375 14.324219 12.628906 C 14.304688 12.691406 14.289062 12.75 14.273438 12.8125 C 14.242188 12.929688 14.222656 13.042969 14.199219 13.160156 C 14.160156 13.386719 14.128906 13.613281 14.097656 13.835938 C 14.039062 14.289062 13.988281 14.734375 13.9375 15.175781 C 13.886719 15.621094 13.839844 16.0625 13.777344 16.492188 C 13.75 16.683594 13.71875 16.875 13.679688 17.058594 C 13.667969 16.984375 13.652344 16.914062 13.640625 16.839844 C 13.605469 16.628906 13.578125 16.417969 13.550781 16.203125 C 13.496094 15.777344 13.453125 15.351562 13.414062 14.925781 C 13.371094 14.5 13.332031 14.074219 13.296875 13.652344 C 13.257812 13.230469 13.222656 12.8125 13.179688 12.394531 C 13.140625 11.976562 13.097656 11.5625 13.046875 11.148438 C 13.019531 10.941406 12.992188 10.738281 12.949219 10.527344 C 12.941406 10.476562 12.929688 10.421875 12.914062 10.371094 C 12.902344 10.316406 12.886719 10.261719 12.867188 10.203125 C 12.855469 10.171875 12.84375 10.140625 12.820312 10.105469 C 12.808594 10.082031 12.796875 10.0625 12.769531 10.035156 C 12.757812 10.011719 12.652344 9.953125 12.59375 9.96875 C 12.5 9.976562 12.460938 10.023438 12.4375 10.046875 C 12.414062 10.074219 12.402344 10.09375 12.394531 10.109375 C 12.371094 10.148438 12.359375 10.179688 12.351562 10.207031 C 12.328125 10.265625 12.316406 10.320312 12.304688 10.375 C 12.289062 10.425781 12.28125 10.480469 12.269531 10.53125 C 12.25 10.636719 12.234375 10.738281 12.222656 10.839844 C 12.191406 11.042969 12.167969 11.242188 12.148438 11.445312 C 12.105469 11.84375 12.070312 12.242188 12.039062 12.636719 C 12.003906 13.03125 11.976562 13.421875 11.945312 13.808594 C 11.886719 14.582031 11.832031 15.34375 11.765625 16.089844 C 11.734375 16.464844 11.703125 16.832031 11.664062 17.195312 C 11.628906 17.5625 11.585938 17.921875 11.535156 18.273438 C 11.511719 18.449219 11.484375 18.625 11.449219 18.796875 C 11.433594 18.882812 11.414062 18.96875 11.394531 19.050781 C 11.371094 19.132812 11.347656 19.210938 11.320312 19.28125 C 11.3125 19.296875 11.308594 19.308594 11.300781 19.320312 C 11.285156 19.292969 11.269531 19.257812 11.253906 19.222656 C 11.222656 19.148438 11.199219 19.066406 11.175781 18.988281 C 11.152344 18.90625 11.128906 18.824219 11.109375 18.742188 C 11.03125 18.414062 10.964844 18.078125 10.90625 17.75 C 10.847656 17.417969 10.789062 17.09375 10.734375 16.769531 C 10.628906 16.121094 10.523438 15.488281 10.40625 14.875 C 10.34375 14.570312 10.28125 14.269531 10.199219 13.972656 C 10.175781 13.898438 10.152344 13.824219 10.128906 13.75 C 10.101562 13.675781 10.074219 13.605469 10.039062 13.53125 C 10.019531 13.492188 10 13.457031 9.972656 13.417969 C 9.957031 13.402344 9.941406 13.382812 9.921875 13.363281 C 9.898438 13.34375 9.875 13.324219 9.835938 13.3125 C 9.816406 13.304688 9.78125 13.300781 9.78125 13.300781 C 9.75 13.300781 9.734375 13.304688 9.714844 13.3125 C 9.675781 13.324219 9.652344 13.347656 9.628906 13.367188 C 9.609375 13.386719 9.59375 13.40625 9.582031 13.425781 C 9.570312 13.445312 9.558594 13.464844 9.546875 13.480469 C 9.511719 13.558594 9.484375 13.628906 9.460938 13.703125 C 9.441406 13.777344 9.421875 13.847656 9.40625 13.917969 C 9.371094 14.0625 9.34375 14.203125 9.320312 14.34375 C 9.269531 14.625 9.230469 14.902344 9.191406 15.171875 C 9.113281 15.714844 9.042969 16.234375 8.949219 16.730469 C 8.902344 16.976562 8.851562 17.21875 8.785156 17.445312 C 8.75 17.558594 8.710938 17.671875 8.660156 17.765625 C 8.632812 17.816406 8.605469 17.859375 8.574219 17.890625 C 8.558594 17.90625 8.539062 17.914062 8.527344 17.921875 C 8.523438 17.921875 8.519531 17.925781 8.519531 17.925781 C 8.519531 17.925781 8.511719 17.925781 8.503906 17.925781 C 8.503906 17.925781 8.496094 17.925781 8.496094 17.925781 C 8.492188 17.925781 8.488281 17.925781 8.484375 17.925781 C 8.476562 17.921875 8.46875 17.917969 8.460938 17.917969 C 8.453125 17.910156 8.445312 17.90625 8.4375 17.898438 C 8.421875 17.886719 8.402344 17.871094 8.386719 17.851562 C 8.355469 17.816406 8.324219 17.769531 8.300781 17.722656 C 8.246094 17.628906 8.203125 17.527344 8.164062 17.429688 C 8.082031 17.226562 8.015625 17.023438 7.953125 16.824219 C 7.824219 16.421875 7.710938 16.039062 7.582031 15.6875 C 7.519531 15.507812 7.449219 15.339844 7.375 15.179688 C 7.296875 15.015625 7.214844 14.863281 7.105469 14.730469 C 7.078125 14.699219 7.046875 14.667969 7.015625 14.636719 C 6.980469 14.609375 6.949219 14.582031 6.910156 14.5625 C 6.890625 14.550781 6.871094 14.542969 6.851562 14.53125 C 6.839844 14.527344 6.828125 14.523438 6.820312 14.519531 L 6.804688 14.515625 L 6.785156 14.511719 C 6.773438 14.507812 6.761719 14.507812 6.75 14.503906 L 6.722656 14.503906 C 6.722656 14.503906 6.710938 14.5 6.703125 14.5 L 6.6875 14.5 L 6.65625 14.503906 C 6.566406 14.511719 6.492188 14.550781 6.425781 14.59375 C 6.363281 14.636719 6.308594 14.6875 6.257812 14.742188 C 6.164062 14.851562 6.089844 14.960938 6.023438 15.074219 C 5.957031 15.183594 5.902344 15.289062 5.855469 15.390625 C 5.804688 15.496094 5.761719 15.59375 5.726562 15.683594 C 5.6875 15.777344 5.652344 15.863281 5.621094 15.945312 C 5.5625 16.105469 5.511719 16.242188 5.476562 16.351562 C 5.4375 16.464844 5.410156 16.546875 5.394531 16.605469 C 5.375 16.660156 5.367188 16.6875 5.367188 16.6875 L 5.441406 16.714844 C 5.441406 16.714844 5.453125 16.683594 5.46875 16.628906 C 5.488281 16.574219 5.515625 16.488281 5.554688 16.378906 C 5.59375 16.269531 5.640625 16.136719 5.703125 15.976562 C 5.734375 15.898438 5.769531 15.8125 5.808594 15.722656 C 5.847656 15.628906 5.890625 15.535156 5.941406 15.433594 C 5.992188 15.335938 6.046875 15.230469 6.109375 15.125 C 6.171875 15.019531 6.246094 14.910156 6.335938 14.8125 C 6.382812 14.765625 6.429688 14.71875 6.484375 14.683594 C 6.542969 14.644531 6.601562 14.617188 6.664062 14.613281 L 6.691406 14.609375 L 6.703125 14.609375 C 6.707031 14.609375 6.703125 14.609375 6.710938 14.613281 L 6.742188 14.613281 C 6.75 14.617188 6.753906 14.617188 6.761719 14.621094 L 6.773438 14.621094 L 6.785156 14.625 C 6.792969 14.628906 6.800781 14.632812 6.808594 14.636719 C 6.824219 14.640625 6.839844 14.648438 6.851562 14.660156 C 6.882812 14.675781 6.910156 14.699219 6.9375 14.722656 C 6.964844 14.75 6.992188 14.773438 7.015625 14.804688 C 7.113281 14.925781 7.191406 15.074219 7.265625 15.230469 C 7.335938 15.386719 7.402344 15.554688 7.460938 15.730469 C 7.585938 16.082031 7.695312 16.460938 7.816406 16.863281 C 7.878906 17.066406 7.945312 17.273438 8.023438 17.484375 C 8.066406 17.585938 8.109375 17.691406 8.167969 17.796875 C 8.195312 17.851562 8.226562 17.902344 8.269531 17.953125 C 8.292969 17.976562 8.3125 18.003906 8.34375 18.023438 C 8.359375 18.035156 8.375 18.046875 8.390625 18.054688 C 8.410156 18.0625 8.429688 18.074219 8.449219 18.078125 C 8.460938 18.078125 8.472656 18.082031 8.484375 18.082031 C 8.496094 18.082031 8.503906 18.082031 8.519531 18.082031 C 8.527344 18.082031 8.53125 18.082031 8.546875 18.078125 C 8.5625 18.074219 8.570312 18.070312 8.582031 18.070312 C 8.621094 18.054688 8.652344 18.03125 8.679688 18.007812 C 8.734375 17.957031 8.769531 17.898438 8.800781 17.84375 C 8.863281 17.730469 8.902344 17.613281 8.941406 17.496094 C 9.015625 17.257812 9.070312 17.011719 9.121094 16.761719 C 9.21875 16.261719 9.292969 15.742188 9.378906 15.199219 C 9.417969 14.929688 9.460938 14.65625 9.515625 14.378906 C 9.539062 14.242188 9.566406 14.105469 9.601562 13.964844 C 9.617188 13.898438 9.636719 13.832031 9.660156 13.765625 C 9.679688 13.699219 9.703125 13.632812 9.730469 13.578125 C 9.738281 13.566406 9.746094 13.550781 9.753906 13.542969 C 9.761719 13.53125 9.769531 13.519531 9.777344 13.515625 C 9.777344 13.515625 9.777344 13.515625 9.777344 13.519531 C 9.785156 13.523438 9.792969 13.535156 9.800781 13.542969 C 9.816406 13.566406 9.832031 13.59375 9.847656 13.625 C 9.878906 13.683594 9.902344 13.75 9.925781 13.820312 C 9.949219 13.886719 9.96875 13.957031 9.988281 14.03125 C 10.066406 14.316406 10.125 14.613281 10.183594 14.917969 C 10.296875 15.527344 10.390625 16.160156 10.492188 16.808594 C 10.542969 17.132812 10.597656 17.460938 10.652344 17.792969 C 10.710938 18.128906 10.769531 18.464844 10.851562 18.804688 C 10.871094 18.890625 10.890625 18.976562 10.914062 19.0625 C 10.941406 19.148438 10.964844 19.234375 11 19.324219 C 11.019531 19.367188 11.039062 19.410156 11.066406 19.457031 C 11.078125 19.480469 11.09375 19.503906 11.113281 19.53125 C 11.132812 19.554688 11.15625 19.585938 11.203125 19.609375 C 11.226562 19.621094 11.253906 19.632812 11.289062 19.636719 C 11.359375 19.632812 11.316406 19.636719 11.378906 19.621094 C 11.414062 19.609375 11.429688 19.59375 11.449219 19.582031 C 11.464844 19.566406 11.476562 19.550781 11.488281 19.539062 C 11.53125 19.484375 11.554688 19.4375 11.574219 19.390625 C 11.613281 19.300781 11.640625 19.210938 11.664062 19.121094 C 11.6875 19.03125 11.707031 18.941406 11.726562 18.851562 C 11.765625 18.675781 11.792969 18.496094 11.820312 18.316406 C 11.875 17.957031 11.921875 17.59375 11.960938 17.226562 C 12.003906 16.863281 12.039062 16.492188 12.074219 16.117188 C 12.144531 15.371094 12.210938 14.609375 12.277344 13.835938 C 12.308594 13.449219 12.34375 13.058594 12.378906 12.667969 C 12.414062 12.273438 12.453125 11.878906 12.5 11.484375 C 12.523438 11.285156 12.546875 11.085938 12.578125 10.890625 C 12.585938 10.832031 12.59375 10.773438 12.605469 10.714844 C 12.632812 10.871094 12.652344 11.035156 12.671875 11.195312 C 12.71875 11.601562 12.757812 12.015625 12.792969 12.429688 C 12.828125 12.847656 12.863281 13.265625 12.898438 13.6875 C 12.929688 14.109375 12.964844 14.535156 13.003906 14.964844 C 13.039062 15.390625 13.082031 15.820312 13.128906 16.253906 C 13.15625 16.472656 13.183594 16.691406 13.21875 16.910156 C 13.238281 17.019531 13.253906 17.128906 13.28125 17.242188 C 13.292969 17.300781 13.304688 17.355469 13.320312 17.414062 C 13.339844 17.472656 13.355469 17.53125 13.386719 17.597656 C 13.398438 17.632812 13.417969 17.667969 13.449219 17.714844 C 13.46875 17.738281 13.488281 17.765625 13.535156 17.792969 C 13.5625 17.824219 13.679688 17.847656 13.714844 17.835938 C 13.828125 17.8125 13.84375 17.78125 13.878906 17.753906 C 13.90625 17.730469 13.921875 17.707031 13.933594 17.683594 C 13.960938 17.644531 13.976562 17.609375 13.988281 17.578125 C 14.015625 17.515625 14.035156 17.453125 14.050781 17.398438 C 14.066406 17.339844 14.082031 17.28125 14.09375 17.226562 C 14.144531 17 14.183594 16.78125 14.214844 16.558594 C 14.285156 16.117188 14.335938 15.675781 14.390625 15.230469 C 14.445312 14.789062 14.5 14.34375 14.5625 13.902344 C 14.59375 13.679688 14.625 13.460938 14.667969 13.242188 C 14.667969 13.230469 14.671875 13.21875 14.675781 13.207031 C 14.707031 13.398438 14.738281 13.59375 14.761719 13.792969 C 14.820312 14.242188 14.863281 14.695312 14.90625 15.152344 C 14.949219 15.609375 14.984375 16.070312 15.023438 16.53125 C 15.09375 17.453125 15.160156 18.382812 15.242188 19.320312 C 15.261719 19.554688 15.28125 19.789062 15.304688 20.023438 C 15.328125 20.261719 15.355469 20.496094 15.386719 20.734375 C 15.402344 20.855469 15.421875 20.972656 15.445312 21.097656 C 15.457031 21.164062 15.46875 21.226562 15.492188 21.296875 C 15.496094 21.316406 15.503906 21.335938 15.511719 21.355469 C 15.519531 21.378906 15.527344 21.402344 15.542969 21.429688 C 15.566406 21.460938 15.570312 21.5 15.675781 21.574219 C 15.804688 21.6875 16.046875 21.546875 16.066406 21.496094 C 16.105469 21.445312 16.117188 21.417969 16.128906 21.390625 C 16.136719 21.367188 16.144531 21.34375 16.152344 21.324219 C 16.164062 21.285156 16.171875 21.25 16.179688 21.214844 C 16.195312 21.148438 16.207031 21.085938 16.214844 21.023438 C 16.234375 20.902344 16.25 20.78125 16.265625 20.660156 C 16.289062 20.421875 16.3125 20.183594 16.332031 19.945312 C 16.351562 19.707031 16.367188 19.472656 16.382812 19.234375 C 16.417969 18.761719 16.449219 18.285156 16.484375 17.8125 C 16.515625 17.335938 16.554688 16.863281 16.597656 16.394531 C 16.605469 16.332031 16.613281 16.269531 16.617188 16.203125 C 16.632812 16.289062 16.644531 16.371094 16.65625 16.453125 C 16.726562 16.921875 16.792969 17.398438 16.867188 17.878906 C 16.902344 18.117188 16.941406 18.359375 16.996094 18.601562 C 17.019531 18.726562 17.046875 18.847656 17.089844 18.980469 C 17.097656 19.011719 17.109375 19.046875 17.125 19.082031 C 17.136719 19.117188 17.152344 19.152344 17.171875 19.195312 C 17.183594 19.214844 17.195312 19.238281 17.210938 19.261719 C 17.226562 19.289062 17.246094 19.316406 17.28125 19.351562 C 17.3125 19.382812 17.363281 19.429688 17.464844 19.457031 C 17.550781 19.488281 17.675781 19.453125 17.753906 19.40625 C 17.816406 19.363281 17.84375 19.328125 17.867188 19.296875 C 17.886719 19.265625 17.902344 19.242188 17.914062 19.21875 C 17.9375 19.171875 17.953125 19.132812 17.96875 19.097656 C 17.992188 19.023438 18.011719 18.957031 18.027344 18.890625 C 18.058594 18.761719 18.082031 18.636719 18.101562 18.515625 C 18.140625 18.269531 18.171875 18.027344 18.199219 17.785156 C 18.257812 17.304688 18.300781 16.824219 18.347656 16.347656 C 18.394531 15.871094 18.441406 15.394531 18.5 14.925781 C 18.511719 14.839844 18.523438 14.753906 18.535156 14.667969 C 18.570312 14.824219 18.597656 14.984375 18.625 15.144531 C 18.707031 15.609375 18.777344 16.082031 18.851562 16.554688 C 18.925781 17.027344 18.996094 17.5 19.082031 17.976562 C 19.105469 18.09375 19.128906 18.214844 19.152344 18.335938 C 19.179688 18.453125 19.207031 18.574219 19.238281 18.699219 C 19.257812 18.761719 19.273438 18.824219 19.296875 18.890625 C 19.308594 18.925781 19.320312 18.960938 19.335938 18.996094 C 19.347656 19.03125 19.363281 19.070312 19.386719 19.109375 C 19.398438 19.132812 19.410156 19.15625 19.429688 19.179688 C 19.445312 19.207031 19.464844 19.234375 19.503906 19.273438 C 19.539062 19.304688 19.589844 19.355469 19.695312 19.386719 C 19.804688 19.421875 19.929688 19.402344 20.023438 19.34375 C 20.101562 19.296875 20.132812 19.253906 20.160156 19.222656 C 20.1875 19.1875 20.203125 19.15625 20.21875 19.132812 C 20.242188 19.082031 20.257812 19.039062 20.273438 19 C 20.300781 18.925781 20.316406 18.859375 20.332031 18.792969 C 20.347656 18.726562 20.363281 18.664062 20.371094 18.601562 C 20.394531 18.476562 20.414062 18.355469 20.429688 18.234375 C 20.464844 17.992188 20.492188 17.753906 20.515625 17.515625 C 20.566406 17.042969 20.609375 16.570312 20.65625 16.109375 C 20.660156 16.09375 20.660156 16.078125 20.660156 16.066406 C 20.683594 16.191406 20.707031 16.320312 20.730469 16.449219 C 20.773438 16.679688 20.816406 16.910156 20.867188 17.148438 C 20.890625 17.265625 20.921875 17.386719 20.957031 17.511719 C 20.976562 17.574219 20.996094 17.640625 21.023438 17.710938 C 21.039062 17.746094 21.054688 17.785156 21.078125 17.828125 C 21.089844 17.851562 21.105469 17.875 21.121094 17.902344 C 21.140625 17.929688 21.164062 17.960938 21.203125 18 C 21.242188 18.035156 21.300781 18.089844 21.410156 18.121094 C 21.558594 18.148438 21.613281 18.152344 21.753906 18.085938 C 21.839844 18.039062 21.875 17.996094 21.90625 17.957031 C 21.9375 17.921875 21.957031 17.890625 21.96875 17.863281 C 22 17.8125 22.019531 17.769531 22.03125 17.730469 C 22.046875 17.691406 22.058594 17.65625 22.070312 17.621094 C 22.089844 17.550781 22.105469 17.488281 22.121094 17.425781 C 22.136719 17.363281 22.148438 17.300781 22.160156 17.242188 C 22.203125 17 22.234375 16.765625 22.261719 16.53125 C 22.289062 16.300781 22.316406 16.070312 22.335938 15.839844 C 22.378906 15.378906 22.417969 14.921875 22.449219 14.46875 C 22.480469 14.066406 22.511719 13.667969 22.539062 13.269531 C 22.539062 13.273438 22.539062 13.28125 22.542969 13.285156 C 22.628906 14.144531 22.710938 15 22.792969 15.84375 C 22.875 16.6875 22.957031 17.519531 23.058594 18.347656 C 23.113281 18.761719 23.164062 19.167969 23.242188 19.585938 C 23.261719 19.6875 23.28125 19.792969 23.304688 19.902344 C 23.316406 19.953125 23.332031 20.007812 23.347656 20.0625 C 23.363281 20.121094 23.382812 20.175781 23.40625 20.242188 C 23.410156 20.257812 23.417969 20.273438 23.425781 20.292969 C 23.433594 20.308594 23.441406 20.328125 23.453125 20.347656 C 23.464844 20.367188 23.472656 20.386719 23.488281 20.414062 C 23.503906 20.4375 23.523438 20.464844 23.558594 20.503906 C 23.59375 20.535156 23.640625 20.585938 23.746094 20.621094 C 23.890625 20.648438 23.9375 20.652344 24.074219 20.589844 C 24.15625 20.542969 24.183594 20.507812 24.214844 20.472656 C 24.238281 20.441406 24.257812 20.414062 24.269531 20.390625 C 24.296875 20.34375 24.3125 20.304688 24.324219 20.273438 C 24.339844 20.238281 24.347656 20.207031 24.359375 20.175781 C 24.375 20.117188 24.390625 20.0625 24.402344 20.007812 C 24.429688 19.898438 24.449219 19.792969 24.46875 19.691406 C 24.484375 19.585938 24.5 19.484375 24.515625 19.382812 C 24.542969 19.179688 24.566406 18.980469 24.589844 18.785156 C 24.636719 18.386719 24.671875 17.996094 24.710938 17.609375 C 24.78125 16.832031 24.84375 16.070312 24.917969 15.332031 C 24.929688 15.214844 24.945312 15.101562 24.957031 14.984375 C 24.957031 14.992188 24.960938 15.003906 24.960938 15.011719 C 25.003906 15.359375 25.050781 15.707031 25.09375 16.046875 C 25.136719 16.390625 25.183594 16.730469 25.246094 17.074219 C 25.261719 17.15625 25.277344 17.242188 25.296875 17.328125 C 25.3125 17.417969 25.335938 17.503906 25.363281 17.59375 C 25.375 17.640625 25.390625 17.6875 25.414062 17.738281 C 25.421875 17.761719 25.433594 17.789062 25.449219 17.820312 C 25.464844 17.847656 25.484375 17.882812 25.519531 17.921875 C 25.535156 17.941406 25.5625 17.96875 25.59375 17.992188 C 25.628906 18.015625 25.683594 18.042969 25.75 18.050781 C 25.828125 18.0625 25.863281 18.046875 25.9375 18.019531 C 25.984375 17.996094 26.011719 17.972656 26.035156 17.949219 C 26.078125 17.90625 26.097656 17.871094 26.117188 17.839844 C 26.132812 17.808594 26.148438 17.78125 26.15625 17.757812 C 26.179688 17.707031 26.195312 17.660156 26.207031 17.613281 C 26.222656 17.570312 26.234375 17.527344 26.246094 17.484375 C 26.265625 17.398438 26.285156 17.3125 26.300781 17.230469 C 26.335938 17.066406 26.363281 16.90625 26.386719 16.746094 C 26.4375 16.425781 26.480469 16.113281 26.527344 15.808594 C 26.570312 15.5 26.617188 15.199219 26.675781 14.914062 C 26.691406 14.851562 26.707031 14.789062 26.71875 14.726562 C 26.734375 14.769531 26.746094 14.8125 26.757812 14.855469 C 26.792969 14.988281 26.824219 15.125 26.855469 15.257812 C 26.914062 15.53125 26.964844 15.804688 27.015625 16.070312 C 27.117188 16.609375 27.210938 17.128906 27.328125 17.628906 C 27.355469 17.757812 27.386719 17.878906 27.425781 18.003906 C 27.441406 18.066406 27.464844 18.128906 27.484375 18.191406 C 27.507812 18.253906 27.535156 18.316406 27.570312 18.382812 C 27.589844 18.417969 27.609375 18.449219 27.640625 18.488281 C 27.65625 18.507812 27.675781 18.527344 27.707031 18.550781 C 27.734375 18.570312 27.773438 18.589844 27.828125 18.597656 C 27.855469 18.601562 27.90625 18.59375 27.894531 18.597656 C 27.90625 18.597656 27.960938 18.578125 27.976562 18.566406 C 27.996094 18.554688 28.011719 18.542969 28.023438 18.53125 C 28.039062 18.519531 28.046875 18.507812 28.058594 18.496094 C 28.09375 18.453125 28.109375 18.414062 28.125 18.378906 C 28.15625 18.308594 28.171875 18.246094 28.1875 18.1875 C 28.203125 18.125 28.21875 18.066406 28.230469 18.007812 C 28.273438 17.773438 28.308594 17.550781 28.351562 17.335938 C 28.390625 17.121094 28.433594 16.914062 28.492188 16.71875 C 28.546875 16.527344 28.617188 16.34375 28.710938 16.1875 C 28.757812 16.109375 28.8125 16.042969 28.871094 15.988281 C 28.902344 15.957031 28.933594 15.933594 28.964844 15.914062 C 29 15.894531 29.03125 15.878906 29.066406 15.867188 C 29.070312 15.863281 29.082031 15.859375 29.078125 15.863281 L 29.09375 15.859375 L 29.128906 15.847656 L 29.152344 15.84375 L 29.164062 15.84375 C 29.167969 15.84375 29.171875 15.84375 29.175781 15.84375 L 29.203125 15.839844 C 29.210938 15.839844 29.222656 15.839844 29.230469 15.839844 C 29.25 15.839844 29.265625 15.84375 29.285156 15.84375 C 29.359375 15.855469 29.433594 15.882812 29.507812 15.914062 C 29.582031 15.949219 29.65625 15.988281 29.730469 16.027344 C 29.800781 16.070312 29.875 16.113281 29.945312 16.152344 C 30.085938 16.234375 30.230469 16.308594 30.371094 16.375 C 30.511719 16.441406 30.648438 16.492188 30.785156 16.535156 C 30.917969 16.582031 31.050781 16.613281 31.175781 16.640625 C 31.207031 16.644531 31.238281 16.652344 31.269531 16.65625 L 31.316406 16.664062 C 31.332031 16.667969 31.34375 16.667969 31.359375 16.671875 C 31.417969 16.679688 31.480469 16.6875 31.535156 16.691406 C 31.765625 16.714844 31.96875 16.714844 32.140625 16.707031 C 32.316406 16.695312 32.460938 16.679688 32.578125 16.660156 C 32.691406 16.640625 32.78125 16.621094 32.835938 16.609375 C 32.894531 16.59375 32.925781 16.585938 32.925781 16.585938 L 32.90625 16.507812 " fill-opacity="1" fill-rule="nonzero"/></g><g fill="#69457b" fill-opacity="1"><g transform="translate(39.693594, 17.689178)"><g><path d="M 2.867188 2.109375 C 6.125 2.109375 8.164062 -1.664062 9.351562 -4.292969 C 9.421875 -4.445312 9.351562 -4.597656 9.199219 -4.65625 C 9.046875 -4.726562 8.890625 -4.640625 8.835938 -4.5 C 7.855469 -2 5.507812 1.371094 3.480469 1.371094 C 1.914062 1.371094 1.539062 -1.480469 1.777344 -3.914062 C 2.082031 -7.199219 3.816406 -12.203125 5.914062 -12.203125 C 7.648438 -12.203125 7.785156 -7.5625 5.914062 -7.519531 C 5.214844 -7.507812 4.796875 -8.304688 5.296875 -9.058594 C 5.382812 -9.183594 5.355469 -9.351562 5.214844 -9.4375 C 5.074219 -9.519531 4.921875 -9.476562 4.835938 -9.324219 C 4.195312 -8.121094 4.667969 -6.960938 5.914062 -6.960938 C 8.332031 -6.960938 8.808594 -12.847656 5.257812 -12.847656 C 2.195312 -12.847656 0.347656 -7.480469 0.0546875 -3.832031 C -0.222656 -0.769531 0.320312 2.109375 2.867188 2.109375 Z M 2.867188 2.109375 "/></g></g></g><g fill="#69457b" fill-opacity="1"><g transform="translate(48.384901, 17.689178)"><g><path d="M 4.054688 2.238281 C 5.101562 2.238281 5.859375 0.546875 6.402344 -1.046875 C 6.695312 -1.902344 7.058594 -3.523438 7.269531 -4.363281 C 7.296875 -4.472656 7.324219 -4.597656 7.046875 -4.683594 C 6.78125 -4.738281 6.753906 -4.613281 6.722656 -4.488281 C 6.515625 -3.566406 6.136719 -1.984375 5.871094 -1.214844 C 5.621094 -0.476562 5.101562 0.910156 4.808594 0.910156 C 4.265625 0.910156 4.753906 -2.65625 5.128906 -4.332031 C 5.328125 -5.144531 3.566406 -5.328125 3.371094 -4.472656 C 2.628906 -2.363281 2.070312 -0.613281 1.441406 -0.613281 C 0.867188 -0.613281 1.453125 -3.578125 1.789062 -4.613281 C 2.070312 -5.355469 0.363281 -5.523438 0.152344 -4.808594 C 0.152344 -4.765625 -1.453125 0.558594 0.726562 0.558594 C 1.511719 0.558594 2.25 -0.183594 2.949219 -1.664062 C 2.683594 0.183594 2.769531 2.238281 4.054688 2.238281 Z M 4.054688 2.238281 "/></g></g></g><g fill="#69457b" fill-opacity="1"><g transform="translate(54.952288, 17.689178)"><g><path d="M 4.125 2.125 C 5.800781 2.125 8.429688 -1.941406 9.15625 -4.320312 C 9.253906 -4.640625 8.75 -4.894531 8.613281 -4.488281 C 7.535156 -1.285156 5.226562 1.230469 4.472656 1.230469 C 4.207031 1.230469 5.480469 -4.25 5.898438 -5.492188 C 6.054688 -5.886719 4.402344 -6.191406 4.265625 -5.660156 C 4.179688 -5.425781 4.082031 -5.144531 3.96875 -4.851562 C 3.636719 -5.578125 3.003906 -6.109375 1.832031 -6.039062 C -0.839844 -5.886719 -1.636719 0.152344 0.726562 0.152344 C 1.914062 0.152344 2.753906 -0.949219 3.3125 -1.929688 C 2.9375 0.113281 2.824219 2.125 4.125 2.125 Z M 1.496094 -0.699219 C 0.726562 -0.699219 1.328125 -5.339844 2.308594 -5.339844 C 2.921875 -5.339844 3.4375 -4.726562 3.664062 -4.082031 C 2.992188 -2.472656 2.054688 -0.699219 1.496094 -0.699219 Z M 1.496094 -0.699219 "/></g></g></g><g fill="#69457b" fill-opacity="1"><g transform="translate(63.420025, 17.689178)"><g><path d="M 3.664062 2.125 C 5.339844 2.125 6.722656 -1.214844 7.578125 -4.320312 C 7.617188 -4.472656 7.507812 -4.542969 7.351562 -4.585938 C 7.199219 -4.628906 7.085938 -4.640625 7.046875 -4.488281 C 6.261719 -1.59375 4.976562 1.273438 3.914062 1.273438 C 3.339844 1.273438 4.152344 -2.710938 4.796875 -5.226562 C 4.90625 -5.605469 4.65625 -5.773438 4.320312 -5.773438 C 3.339844 -5.773438 2.109375 -5.03125 0.910156 -4.949219 C 1.675781 -6.960938 1.972656 -9.144531 0.363281 -9.144531 L 0.347656 -9.144531 C -0.742188 -9.144531 -1.371094 -7.816406 -1.371094 -6.625 C -1.371094 -5.410156 -0.742188 -4.375 0.476562 -4.375 C 1.355469 -4.375 2.195312 -4.570312 2.992188 -4.851562 C 2.292969 -2.207031 1.453125 2.125 3.664062 2.125 Z M 0.292969 -4.949219 C -0.460938 -5.046875 -0.8125 -5.800781 -0.8125 -6.625 C -0.8125 -7.519531 -0.378906 -8.582031 0.347656 -8.582031 L 0.363281 -8.582031 C 1.453125 -8.582031 0.9375 -6.472656 0.292969 -4.949219 Z M 0.292969 -4.949219 "/></g></g></g><g fill="#69457b" fill-opacity="1"><g transform="translate(70.308792, 17.689178)"><g><path d="M 0.78125 4.640625 C 2.769531 4.640625 4.488281 -1.453125 5.089844 -4.347656 C 5.117188 -4.5 5.03125 -4.628906 4.878906 -4.667969 C 4.726562 -4.710938 4.570312 -4.613281 4.542969 -4.460938 C 3.957031 -1.734375 2.277344 3.480469 1.410156 3.480469 C 0.910156 3.480469 1.035156 0.980469 1.214844 -0.769531 C 1.398438 -2.726562 2.027344 -6.722656 2.558594 -9.855469 C 4.25 -9.578125 5.984375 -9.3125 7.367188 -9.3125 C 9.773438 -9.3125 11.574219 -9.925781 12.078125 -12.023438 C 12.121094 -12.175781 12.035156 -12.316406 11.882812 -12.359375 C 11.730469 -12.398438 11.589844 -12.300781 11.546875 -12.148438 C 11.199219 -10.738281 10.09375 -9.882812 8.066406 -9.882812 C 6.125 -9.882812 4.332031 -10.164062 2.671875 -10.441406 C 2.726562 -10.738281 2.769531 -11.03125 2.824219 -11.308594 C 2.921875 -12.066406 1.203125 -11.96875 1.132812 -11.351562 C 1.089844 -11.15625 1.0625 -10.945312 1.019531 -10.722656 C -0.125 -10.917969 -1.203125 -11.058594 -2.207031 -11.058594 C -3.339844 -11.058594 -4.292969 -10.835938 -4.53125 -9.953125 C -4.570312 -9.800781 -4.472656 -9.644531 -4.320312 -9.605469 C -4.136719 -9.578125 -4.027344 -9.644531 -3.984375 -9.8125 C -3.832031 -10.402344 -3.019531 -10.5 -2.222656 -10.5 C -1.382812 -10.484375 -0.292969 -10.332031 0.910156 -10.136719 C 0.417969 -7.269531 -0.28125 -2.585938 -0.449219 -0.796875 C -0.699219 2.027344 -0.726562 4.640625 0.78125 4.640625 Z M 0.78125 4.640625 "/></g></g></g><g fill="#69457b" fill-opacity="1"><g transform="translate(74.696363, 17.689178)"><g><path d="M 7.1875 -4.628906 C 7.046875 -4.710938 6.863281 -4.667969 6.808594 -4.515625 C 6.277344 -3.0625 5.523438 -2.335938 4.417969 -2.40625 C 4.808594 -4.292969 4.808594 -6.5 3.160156 -6.5 C 2.179688 -6.5 1.648438 -5.71875 1.578125 -4.808594 C 1.355469 -4.921875 1.117188 -4.992188 0.980469 -4.992188 C -0.894531 -4.992188 -1.046875 0.0820312 1.902344 0.0820312 C 3.035156 0.0820312 3.859375 -0.796875 4.292969 -1.84375 C 5.410156 -1.84375 6.5 -2.277344 7.296875 -4.277344 C 7.351562 -4.417969 7.324219 -4.542969 7.1875 -4.628906 Z M 3.84375 -2.417969 C 1.984375 -2.417969 1.511719 -5.941406 3.160156 -5.941406 C 4.25 -5.941406 4.179688 -4.097656 3.84375 -2.417969 Z M 2.433594 -0.628906 C 1.328125 -0.628906 1.089844 -2.78125 1.621094 -4.039062 C 1.804688 -3.035156 2.503906 -2.054688 3.71875 -1.875 C 3.4375 -1.214844 2.949219 -0.628906 2.433594 -0.628906 Z M 2.433594 -0.628906 "/></g></g></g><g fill="#69457b" fill-opacity="1"><g transform="translate(81.319639, 17.689178)"><g/></g></g><g fill="#69457b" fill-opacity="1"><g transform="translate(84.812927, 17.689178)"><g><path d="M 1.453125 4.808594 C 3.171875 4.808594 4.851562 3.160156 4.851562 1.3125 C 4.851562 0.347656 4.570312 -0.714844 4.039062 -1.382812 C 5.1875 -2.222656 6.207031 -3.214844 6.625 -4.304688 C 6.695312 -4.488281 6.640625 -4.597656 6.457031 -4.667969 C 6.304688 -4.726562 6.152344 -4.65625 6.109375 -4.5 C 5.816406 -3.410156 4.78125 -2.65625 3.703125 -1.832031 C 3.257812 -2.375 1.609375 -3.4375 1.609375 -4.824219 C 1.609375 -6.011719 3.3125 -6.90625 3.398438 -5.003906 C 3.410156 -4.585938 3.371094 -4.332031 3.84375 -4.332031 C 4.082031 -4.332031 4.207031 -4.265625 4.222656 -4.921875 C 4.292969 -7.953125 -0.152344 -8.109375 -0.152344 -4.25 C -0.152344 -3.035156 1.175781 -2.027344 2.433594 -0.851562 C 1.007812 0.25 -0.222656 1.59375 -0.222656 2.976562 C -0.222656 4.152344 0.347656 4.808594 1.453125 4.808594 Z M 1.175781 4.125 C 0.585938 4.125 0.335938 3.800781 0.335938 3.035156 C 0.335938 1.777344 1.410156 0.65625 2.738281 -0.390625 C 3.0625 0.125 3.171875 0.699219 3.171875 1.425781 C 3.171875 2.585938 2.179688 4.125 1.175781 4.125 Z M 1.175781 4.125 "/></g></g></g><g fill="#69457b" fill-opacity="1"><g transform="translate(90.765491, 17.689178)"><g><path d="M 7.1875 -4.628906 C 7.046875 -4.710938 6.863281 -4.667969 6.808594 -4.515625 C 6.277344 -3.0625 5.523438 -2.335938 4.417969 -2.40625 C 4.808594 -4.292969 4.808594 -6.5 3.160156 -6.5 C 2.179688 -6.5 1.648438 -5.71875 1.578125 -4.808594 C 1.355469 -4.921875 1.117188 -4.992188 0.980469 -4.992188 C -0.894531 -4.992188 -1.046875 0.0820312 1.902344 0.0820312 C 3.035156 0.0820312 3.859375 -0.796875 4.292969 -1.84375 C 5.410156 -1.84375 6.5 -2.277344 7.296875 -4.277344 C 7.351562 -4.417969 7.324219 -4.542969 7.1875 -4.628906 Z M 3.84375 -2.417969 C 1.984375 -2.417969 1.511719 -5.941406 3.160156 -5.941406 C 4.25 -5.941406 4.179688 -4.097656 3.84375 -2.417969 Z M 2.433594 -0.628906 C 1.328125 -0.628906 1.089844 -2.78125 1.621094 -4.039062 C 1.804688 -3.035156 2.503906 -2.054688 3.71875 -1.875 C 3.4375 -1.214844 2.949219 -0.628906 2.433594 -0.628906 Z M 2.433594 -0.628906 "/></g></g></g><g fill="#69457b" fill-opacity="1"><g transform="translate(97.388767, 17.689178)"><g><path d="M 4.878906 3.761719 C 6.039062 3.761719 6.960938 1.789062 7.675781 -0.363281 C 8.066406 -1.59375 8.359375 -2.710938 8.667969 -3.96875 C 8.765625 -4.417969 8.863281 -4.558594 8.515625 -4.65625 C 8.234375 -4.710938 8.207031 -4.472656 8.121094 -4.097656 C 7.898438 -3.132812 7.394531 -1.300781 7.144531 -0.53125 C 6.753906 0.628906 5.914062 2.671875 5.535156 2.671875 C 5.199219 2.671875 5.394531 0.0546875 5.5625 -1.59375 C 5.800781 -3.773438 6.011719 -6.066406 4.292969 -6.066406 C 2.78125 -6.066406 2.25 -4.390625 1.648438 -2.585938 L 1.691406 -4.390625 C 1.691406 -5.144531 0.015625 -5.003906 0.015625 -4.402344 L -0.0820312 -0.210938 C -0.113281 0.363281 1.441406 0.390625 1.578125 -0.125 C 1.941406 -1.410156 2.851562 -5.269531 3.664062 -5.269531 C 4.292969 -5.269531 4.039062 -3.816406 3.703125 0.0976562 C 3.523438 1.902344 3.621094 3.761719 4.878906 3.761719 Z M 4.878906 3.761719 "/></g></g></g><g fill="#69457b" fill-opacity="1"><g transform="translate(105.451284, 17.689178)"><g><path d="M 7.1875 -4.628906 C 7.046875 -4.710938 6.863281 -4.667969 6.808594 -4.515625 C 6.277344 -3.0625 5.523438 -2.335938 4.417969 -2.40625 C 4.808594 -4.292969 4.808594 -6.5 3.160156 -6.5 C 2.179688 -6.5 1.648438 -5.71875 1.578125 -4.808594 C 1.355469 -4.921875 1.117188 -4.992188 0.980469 -4.992188 C -0.894531 -4.992188 -1.046875 0.0820312 1.902344 0.0820312 C 3.035156 0.0820312 3.859375 -0.796875 4.292969 -1.84375 C 5.410156 -1.84375 6.5 -2.277344 7.296875 -4.277344 C 7.351562 -4.417969 7.324219 -4.542969 7.1875 -4.628906 Z M 3.84375 -2.417969 C 1.984375 -2.417969 1.511719 -5.941406 3.160156 -5.941406 C 4.25 -5.941406 4.179688 -4.097656 3.84375 -2.417969 Z M 2.433594 -0.628906 C 1.328125 -0.628906 1.089844 -2.78125 1.621094 -4.039062 C 1.804688 -3.035156 2.503906 -2.054688 3.71875 -1.875 C 3.4375 -1.214844 2.949219 -0.628906 2.433594 -0.628906 Z M 2.433594 -0.628906 "/></g></g></g><g fill="#69457b" fill-opacity="1"><g transform="translate(112.07456, 17.689178)"><g><path d="M 3.664062 2.125 C 5.339844 2.125 6.722656 -1.214844 7.578125 -4.320312 C 7.617188 -4.472656 7.507812 -4.542969 7.351562 -4.585938 C 7.199219 -4.628906 7.085938 -4.640625 7.046875 -4.488281 C 6.261719 -1.59375 4.976562 1.273438 3.914062 1.273438 C 3.339844 1.273438 4.152344 -2.710938 4.796875 -5.226562 C 4.90625 -5.605469 4.65625 -5.773438 4.320312 -5.773438 C 3.339844 -5.773438 2.109375 -5.03125 0.910156 -4.949219 C 1.675781 -6.960938 1.972656 -9.144531 0.363281 -9.144531 L 0.347656 -9.144531 C -0.742188 -9.144531 -1.371094 -7.816406 -1.371094 -6.625 C -1.371094 -5.410156 -0.742188 -4.375 0.476562 -4.375 C 1.355469 -4.375 2.195312 -4.570312 2.992188 -4.851562 C 2.292969 -2.207031 1.453125 2.125 3.664062 2.125 Z M 0.292969 -4.949219 C -0.460938 -5.046875 -0.8125 -5.800781 -0.8125 -6.625 C -0.8125 -7.519531 -0.378906 -8.582031 0.347656 -8.582031 L 0.363281 -8.582031 C 1.453125 -8.582031 0.9375 -6.472656 0.292969 -4.949219 Z M 0.292969 -4.949219 "/></g></g></g><g fill="#69457b" fill-opacity="1"><g transform="translate(118.963327, 17.689178)"><g><path d="M 7.1875 -4.628906 C 7.046875 -4.710938 6.863281 -4.667969 6.808594 -4.515625 C 6.277344 -3.0625 5.523438 -2.335938 4.417969 -2.40625 C 4.808594 -4.292969 4.808594 -6.5 3.160156 -6.5 C 2.179688 -6.5 1.648438 -5.71875 1.578125 -4.808594 C 1.355469 -4.921875 1.117188 -4.992188 0.980469 -4.992188 C -0.894531 -4.992188 -1.046875 0.0820312 1.902344 0.0820312 C 3.035156 0.0820312 3.859375 -0.796875 4.292969 -1.84375 C 5.410156 -1.84375 6.5 -2.277344 7.296875 -4.277344 C 7.351562 -4.417969 7.324219 -4.542969 7.1875 -4.628906 Z M 3.84375 -2.417969 C 1.984375 -2.417969 1.511719 -5.941406 3.160156 -5.941406 C 4.25 -5.941406 4.179688 -4.097656 3.84375 -2.417969 Z M 2.433594 -0.628906 C 1.328125 -0.628906 1.089844 -2.78125 1.621094 -4.039062 C 1.804688 -3.035156 2.503906 -2.054688 3.71875 -1.875 C 3.4375 -1.214844 2.949219 -0.628906 2.433594 -0.628906 Z M 2.433594 -0.628906 "/></g></g></g><g fill="#805fd1" fill-opacity="1"><g transform="translate(32.20414, 30.314833)"><g><path d="M 4.25 -1.28125 C 3.910156 -1.082031 3.5625 -0.984375 3.207031 -0.984375 C 2.25 -0.984375 1.59375 -1.609375 1.59375 -2.554688 C 1.59375 -3.507812 2.269531 -4.136719 3.304688 -4.136719 C 3.648438 -4.136719 3.949219 -4.074219 4.210938 -3.945312 C 4.390625 -4.226562 4.480469 -4.46875 4.480469 -4.664062 C 4.480469 -5.015625 4.152344 -5.175781 3.464844 -5.175781 C 2.605469 -5.175781 1.785156 -4.917969 1.25 -4.492188 C 0.5625 -3.957031 0.222656 -3.277344 0.222656 -2.464844 C 0.222656 -0.964844 1.367188 0.0625 3.113281 0.0625 C 4.042969 0.0625 4.53125 -0.179688 4.53125 -0.625 C 4.53125 -0.828125 4.4375 -1.046875 4.25 -1.28125 Z M 4.25 -1.28125 "/></g></g></g><g fill="#805fd1" fill-opacity="1"><g transform="translate(37.023998, 30.314833)"><g><path d="M 4.234375 -1.855469 C 4.234375 -2.882812 3.441406 -3.625 2.3125 -3.625 C 1.09375 -3.625 0.226562 -2.824219 0.226562 -1.722656 C 0.226562 -0.664062 1.027344 0.0859375 2.191406 0.0859375 C 2.851562 0.0859375 3.386719 -0.152344 3.789062 -0.625 C 4.089844 -0.976562 4.234375 -1.386719 4.234375 -1.855469 Z M 1.351562 -1.746094 C 1.351562 -2.320312 1.714844 -2.703125 2.242188 -2.703125 C 2.769531 -2.703125 3.128906 -2.339844 3.128906 -1.785156 C 3.128906 -1.242188 2.742188 -0.855469 2.242188 -0.855469 C 1.707031 -0.855469 1.351562 -1.214844 1.351562 -1.746094 Z M 1.351562 -1.746094 "/></g></g></g><g fill="#805fd1" fill-opacity="1"><g transform="translate(41.486969, 30.314833)"><g><path d="M 1.792969 -0.199219 C 1.632812 -0.527344 1.59375 -1.101562 1.59375 -2.132812 C 1.59375 -2.59375 1.609375 -3.101562 1.632812 -3.65625 C 1.660156 -4.210938 1.671875 -4.53125 1.671875 -4.621094 C 1.671875 -5.03125 1.527344 -5.1875 1.160156 -5.1875 C 0.890625 -5.1875 0.613281 -5.117188 0.328125 -4.984375 C 0.484375 -4.683594 0.535156 -4.207031 0.535156 -3.398438 C 0.535156 -2.863281 0.519531 -2.296875 0.492188 -1.691406 C 0.464844 -1.085938 0.449219 -0.746094 0.449219 -0.675781 C 0.449219 -0.160156 0.550781 0 0.960938 0 C 1.195312 0 1.472656 -0.0664062 1.792969 -0.199219 Z M 1.792969 -0.199219 "/></g></g></g><g fill="#805fd1" fill-opacity="1"><g transform="translate(43.613594, 30.314833)"><g><path d="M 3.226562 -0.992188 C 3.011719 -0.820312 2.707031 -0.730469 2.324219 -0.730469 C 1.660156 -0.730469 1.296875 -1.023438 1.296875 -1.550781 L 1.296875 -1.5625 C 1.597656 -1.523438 1.921875 -1.5 2.265625 -1.5 C 3.285156 -1.5 3.691406 -1.703125 3.691406 -2.332031 C 3.691406 -3.070312 3.074219 -3.597656 2.132812 -3.597656 C 0.996094 -3.597656 0.226562 -2.84375 0.226562 -1.742188 C 0.226562 -0.597656 0.941406 0.0429688 2.234375 0.0429688 C 3.015625 0.0429688 3.457031 -0.183594 3.457031 -0.539062 C 3.457031 -0.675781 3.378906 -0.828125 3.226562 -0.992188 Z M 1.34375 -2.128906 C 1.414062 -2.613281 1.675781 -2.886719 2.066406 -2.886719 C 2.402344 -2.886719 2.625 -2.671875 2.625 -2.347656 C 2.625 -2.125 2.484375 -2.066406 2.121094 -2.066406 C 1.960938 -2.066406 1.699219 -2.085938 1.34375 -2.128906 Z M 1.34375 -2.128906 "/></g></g></g><g fill="#805fd1" fill-opacity="1"><g transform="translate(47.473163, 30.314833)"><g><path d="M 2.914062 -1.097656 C 2.667969 -0.933594 2.414062 -0.855469 2.152344 -0.855469 C 1.664062 -0.855469 1.335938 -1.191406 1.335938 -1.707031 C 1.335938 -2.25 1.753906 -2.671875 2.273438 -2.671875 C 2.453125 -2.671875 2.625 -2.628906 2.777344 -2.539062 C 2.964844 -2.734375 3.058594 -2.925781 3.058594 -3.113281 C 3.058594 -3.421875 2.796875 -3.597656 2.3125 -3.597656 C 1.808594 -3.597656 1.304688 -3.421875 0.96875 -3.144531 C 0.472656 -2.726562 0.222656 -2.199219 0.222656 -1.5625 C 0.222656 -0.582031 0.949219 0.078125 2.054688 0.078125 C 2.742188 0.078125 3.144531 -0.175781 3.144531 -0.5625 C 3.144531 -0.730469 3.066406 -0.910156 2.914062 -1.097656 Z M 2.914062 -1.097656 "/></g></g></g><g fill="#805fd1" fill-opacity="1"><g transform="translate(50.744047, 30.314833)"><g><path d="M 1.777344 -3.394531 C 1.8125 -3.792969 1.828125 -4.015625 1.828125 -4.050781 C 1.828125 -4.390625 1.671875 -4.542969 1.328125 -4.542969 C 1.105469 -4.542969 0.855469 -4.480469 0.570312 -4.34375 C 0.667969 -4.148438 0.71875 -3.882812 0.71875 -3.554688 C 0.71875 -3.535156 0.71875 -3.503906 0.714844 -3.457031 C 0.710938 -3.40625 0.710938 -3.375 0.710938 -3.347656 C 0.566406 -3.335938 0.472656 -3.335938 0.417969 -3.335938 C 0.3125 -3.335938 0.222656 -3.339844 0.144531 -3.355469 C 0.0585938 -3.175781 0.015625 -3.027344 0.015625 -2.914062 C 0.015625 -2.710938 0.125 -2.636719 0.375 -2.636719 C 0.460938 -2.636719 0.554688 -2.644531 0.667969 -2.660156 C 0.664062 -2.453125 0.648438 -2.179688 0.621094 -1.835938 C 0.597656 -1.492188 0.582031 -1.25 0.582031 -1.113281 C 0.582031 -0.339844 0.929688 0.0351562 1.65625 0.0351562 C 2.226562 0.0351562 2.554688 -0.171875 2.554688 -0.496094 C 2.554688 -0.625 2.503906 -0.757812 2.394531 -0.894531 C 2.300781 -0.820312 2.203125 -0.785156 2.105469 -0.785156 C 1.820312 -0.785156 1.679688 -1.046875 1.679688 -1.570312 C 1.679688 -1.847656 1.695312 -2.21875 1.734375 -2.6875 C 1.875 -2.691406 2.136719 -2.707031 2.167969 -2.707031 C 2.339844 -2.707031 2.476562 -2.691406 2.574219 -2.652344 C 2.703125 -2.847656 2.765625 -3.019531 2.765625 -3.164062 C 2.765625 -3.359375 2.671875 -3.433594 2.441406 -3.433594 C 2.382812 -3.433594 2.210938 -3.421875 2.066406 -3.410156 C 1.964844 -3.402344 1.871094 -3.398438 1.777344 -3.394531 Z M 1.777344 -3.394531 "/></g></g></g><g fill="#805fd1" fill-opacity="1"><g transform="translate(53.602853, 30.314833)"><g><path d="M 1.152344 -5.253906 C 0.785156 -5.253906 0.488281 -4.964844 0.488281 -4.609375 C 0.488281 -4.285156 0.714844 -4.066406 1.050781 -4.066406 C 1.4375 -4.066406 1.734375 -4.34375 1.734375 -4.691406 C 1.734375 -5.015625 1.492188 -5.253906 1.152344 -5.253906 Z M 1.785156 -0.199219 C 1.667969 -0.484375 1.609375 -0.871094 1.609375 -1.359375 C 1.609375 -1.605469 1.621094 -1.914062 1.644531 -2.285156 C 1.667969 -2.65625 1.679688 -2.898438 1.679688 -3.019531 C 1.679688 -3.398438 1.523438 -3.554688 1.167969 -3.554688 C 0.886719 -3.554688 0.609375 -3.488281 0.335938 -3.355469 C 0.449219 -3.117188 0.503906 -2.714844 0.503906 -2.152344 C 0.503906 -1.871094 0.492188 -1.550781 0.476562 -1.191406 C 0.453125 -0.832031 0.441406 -0.609375 0.441406 -0.535156 C 0.441406 -0.148438 0.574219 0 0.945312 0 C 1.230469 0 1.507812 -0.0664062 1.785156 -0.199219 Z M 1.785156 -0.199219 "/></g></g></g><g fill="#805fd1" fill-opacity="1"><g transform="translate(55.71476, 30.314833)"><g><path d="M 2.625 -3.304688 C 2.769531 -3.125 2.84375 -2.90625 2.84375 -2.644531 C 2.84375 -2.191406 2.695312 -1.746094 2.394531 -1.304688 C 2.285156 -1.140625 2.199219 -1.058594 2.140625 -1.058594 C 2.078125 -1.0625 2.015625 -1.140625 1.953125 -1.296875 C 1.914062 -1.390625 1.8125 -1.71875 1.65625 -2.273438 C 1.539062 -2.679688 1.480469 -2.878906 1.398438 -3.082031 C 1.300781 -3.335938 1.203125 -3.429688 1.035156 -3.5 C 1.039062 -3.511719 0.984375 -3.527344 0.867188 -3.539062 C 0.5625 -3.539062 0.285156 -3.320312 0.0234375 -2.875 C 0.355469 -2.636719 0.527344 -2.21875 0.847656 -1.238281 C 0.855469 -1.214844 0.863281 -1.179688 0.875 -1.140625 C 0.988281 -0.792969 1.0625 -0.574219 1.167969 -0.363281 C 1.214844 -0.257812 1.269531 -0.175781 1.328125 -0.117188 C 1.441406 0.00390625 1.597656 0.078125 1.8125 0.078125 C 2.199219 0.078125 2.597656 -0.171875 3.007812 -0.675781 C 3.640625 -1.445312 3.988281 -2.335938 3.988281 -2.90625 C 3.988281 -3.335938 3.761719 -3.585938 3.363281 -3.585938 C 3.085938 -3.585938 2.839844 -3.492188 2.625 -3.304688 Z M 2.625 -3.304688 "/></g></g></g><g fill="#805fd1" fill-opacity="1"><g transform="translate(59.901781, 30.314833)"><g><path d="M 4.234375 -1.855469 C 4.234375 -2.882812 3.441406 -3.625 2.3125 -3.625 C 1.09375 -3.625 0.226562 -2.824219 0.226562 -1.722656 C 0.226562 -0.664062 1.027344 0.0859375 2.191406 0.0859375 C 2.851562 0.0859375 3.386719 -0.152344 3.789062 -0.625 C 4.089844 -0.976562 4.234375 -1.386719 4.234375 -1.855469 Z M 1.351562 -1.746094 C 1.351562 -2.320312 1.714844 -2.703125 2.242188 -2.703125 C 2.769531 -2.703125 3.128906 -2.339844 3.128906 -1.785156 C 3.128906 -1.242188 2.742188 -0.855469 2.242188 -0.855469 C 1.707031 -0.855469 1.351562 -1.214844 1.351562 -1.746094 Z M 1.351562 -1.746094 "/></g></g></g><g fill="#805fd1" fill-opacity="1"><g transform="translate(64.364753, 30.314833)"><g/></g></g><g fill="#805fd1" fill-opacity="1"><g transform="translate(66.572321, 30.314833)"><g><path d="M 4.164062 -0.214844 C 4 -0.527344 3.960938 -1.03125 3.960938 -1.976562 C 3.960938 -2.503906 3.972656 -3.050781 4.007812 -3.628906 C 4.035156 -4.203125 4.050781 -4.515625 4.050781 -4.5625 C 4.050781 -5.03125 3.929688 -5.1875 3.53125 -5.1875 C 3.285156 -5.1875 3.019531 -5.121094 2.738281 -4.988281 C 2.867188 -4.789062 2.929688 -4.308594 2.929688 -3.546875 L 2.929688 -3.410156 C 2.628906 -3.527344 2.347656 -3.585938 2.089844 -3.585938 C 1.574219 -3.585938 1.097656 -3.386719 0.753906 -3.019531 C 0.398438 -2.652344 0.222656 -2.191406 0.222656 -1.640625 C 0.222656 -0.65625 0.867188 0.0351562 1.761719 0.0351562 C 2.257812 0.0351562 2.644531 -0.183594 2.9375 -0.625 C 2.933594 -0.597656 2.929688 -0.550781 2.929688 -0.496094 C 2.929688 -0.144531 3.078125 0.0078125 3.425781 0.0078125 C 3.652344 0.0078125 3.898438 -0.0664062 4.171875 -0.214844 Z M 2.90625 -1.328125 C 2.667969 -1.046875 2.402344 -0.902344 2.105469 -0.902344 C 1.660156 -0.902344 1.371094 -1.214844 1.371094 -1.726562 C 1.371094 -2.324219 1.746094 -2.722656 2.304688 -2.722656 C 2.460938 -2.722656 2.660156 -2.675781 2.90625 -2.578125 C 2.917969 -2.445312 2.921875 -2.222656 2.921875 -1.921875 C 2.921875 -1.753906 2.917969 -1.558594 2.90625 -1.328125 Z M 2.90625 -1.328125 "/></g></g></g><g fill="#805fd1" fill-opacity="1"><g transform="translate(70.958024, 30.314833)"><g><path d="M 3.226562 -0.992188 C 3.011719 -0.820312 2.707031 -0.730469 2.324219 -0.730469 C 1.660156 -0.730469 1.296875 -1.023438 1.296875 -1.550781 L 1.296875 -1.5625 C 1.597656 -1.523438 1.921875 -1.5 2.265625 -1.5 C 3.285156 -1.5 3.691406 -1.703125 3.691406 -2.332031 C 3.691406 -3.070312 3.074219 -3.597656 2.132812 -3.597656 C 0.996094 -3.597656 0.226562 -2.84375 0.226562 -1.742188 C 0.226562 -0.597656 0.941406 0.0429688 2.234375 0.0429688 C 3.015625 0.0429688 3.457031 -0.183594 3.457031 -0.539062 C 3.457031 -0.675781 3.378906 -0.828125 3.226562 -0.992188 Z M 1.34375 -2.128906 C 1.414062 -2.613281 1.675781 -2.886719 2.066406 -2.886719 C 2.402344 -2.886719 2.625 -2.671875 2.625 -2.347656 C 2.625 -2.125 2.484375 -2.066406 2.121094 -2.066406 C 1.960938 -2.066406 1.699219 -2.085938 1.34375 -2.128906 Z M 1.34375 -2.128906 "/></g></g></g><g fill="#805fd1" fill-opacity="1"><g transform="translate(74.817593, 30.314833)"><g/></g></g><g fill="#805fd1" fill-opacity="1"><g transform="translate(77.025161, 30.314833)"><g><path d="M 1.152344 -5.253906 C 0.785156 -5.253906 0.488281 -4.964844 0.488281 -4.609375 C 0.488281 -4.285156 0.714844 -4.066406 1.050781 -4.066406 C 1.4375 -4.066406 1.734375 -4.34375 1.734375 -4.691406 C 1.734375 -5.015625 1.492188 -5.253906 1.152344 -5.253906 Z M 1.785156 -0.199219 C 1.667969 -0.484375 1.609375 -0.871094 1.609375 -1.359375 C 1.609375 -1.605469 1.621094 -1.914062 1.644531 -2.285156 C 1.667969 -2.65625 1.679688 -2.898438 1.679688 -3.019531 C 1.679688 -3.398438 1.523438 -3.554688 1.167969 -3.554688 C 0.886719 -3.554688 0.609375 -3.488281 0.335938 -3.355469 C 0.449219 -3.117188 0.503906 -2.714844 0.503906 -2.152344 C 0.503906 -1.871094 0.492188 -1.550781 0.476562 -1.191406 C 0.453125 -0.832031 0.441406 -0.609375 0.441406 -0.535156 C 0.441406 -0.148438 0.574219 0 0.945312 0 C 1.230469 0 1.507812 -0.0664062 1.785156 -0.199219 Z M 1.785156 -0.199219 "/></g></g></g><g fill="#805fd1" fill-opacity="1"><g transform="translate(79.137069, 30.314833)"><g><path d="M 4.1875 -0.199219 C 4.070312 -0.402344 4.011719 -0.789062 4.011719 -1.359375 C 4.011719 -1.414062 4.015625 -1.511719 4.019531 -1.664062 C 4.023438 -1.8125 4.027344 -1.9375 4.027344 -2.035156 C 4.027344 -3.109375 3.65625 -3.589844 2.769531 -3.589844 C 2.378906 -3.589844 1.988281 -3.429688 1.601562 -3.105469 C 1.570312 -3.417969 1.339844 -3.589844 0.929688 -3.589844 C 0.757812 -3.589844 0.558594 -3.558594 0.34375 -3.492188 C 0.457031 -3.253906 0.511719 -2.851562 0.511719 -2.289062 C 0.511719 -2.003906 0.496094 -1.675781 0.472656 -1.300781 C 0.441406 -0.921875 0.425781 -0.6875 0.425781 -0.597656 C 0.425781 -0.15625 0.550781 0 0.9375 0 C 1.214844 0 1.492188 -0.0625 1.761719 -0.191406 C 1.644531 -0.441406 1.585938 -0.859375 1.585938 -1.433594 C 1.585938 -1.515625 1.597656 -1.859375 1.621094 -2.464844 C 1.867188 -2.632812 2.089844 -2.714844 2.296875 -2.714844 C 2.742188 -2.714844 2.890625 -2.441406 2.890625 -1.761719 C 2.890625 -1.605469 2.886719 -1.382812 2.871094 -1.105469 C 2.851562 -0.824219 2.84375 -0.625 2.84375 -0.503906 C 2.84375 -0.140625 2.992188 0 3.363281 0 C 3.648438 0 3.921875 -0.0625 4.1875 -0.191406 Z M 4.1875 -0.199219 "/></g></g></g><g fill="#805fd1" fill-opacity="1"><g transform="translate(83.60004, 30.314833)"><g><path d="M 2.625 -3.304688 C 2.769531 -3.125 2.84375 -2.90625 2.84375 -2.644531 C 2.84375 -2.191406 2.695312 -1.746094 2.394531 -1.304688 C 2.285156 -1.140625 2.199219 -1.058594 2.140625 -1.058594 C 2.078125 -1.0625 2.015625 -1.140625 1.953125 -1.296875 C 1.914062 -1.390625 1.8125 -1.71875 1.65625 -2.273438 C 1.539062 -2.679688 1.480469 -2.878906 1.398438 -3.082031 C 1.300781 -3.335938 1.203125 -3.429688 1.035156 -3.5 C 1.039062 -3.511719 0.984375 -3.527344 0.867188 -3.539062 C 0.5625 -3.539062 0.285156 -3.320312 0.0234375 -2.875 C 0.355469 -2.636719 0.527344 -2.21875 0.847656 -1.238281 C 0.855469 -1.214844 0.863281 -1.179688 0.875 -1.140625 C 0.988281 -0.792969 1.0625 -0.574219 1.167969 -0.363281 C 1.214844 -0.257812 1.269531 -0.175781 1.328125 -0.117188 C 1.441406 0.00390625 1.597656 0.078125 1.8125 0.078125 C 2.199219 0.078125 2.597656 -0.171875 3.007812 -0.675781 C 3.640625 -1.445312 3.988281 -2.335938 3.988281 -2.90625 C 3.988281 -3.335938 3.761719 -3.585938 3.363281 -3.585938 C 3.085938 -3.585938 2.839844 -3.492188 2.625 -3.304688 Z M 2.625 -3.304688 "/></g></g></g><g fill="#805fd1" fill-opacity="1"><g transform="translate(87.787061, 30.314833)"><g><path d="M 3.226562 -0.992188 C 3.011719 -0.820312 2.707031 -0.730469 2.324219 -0.730469 C 1.660156 -0.730469 1.296875 -1.023438 1.296875 -1.550781 L 1.296875 -1.5625 C 1.597656 -1.523438 1.921875 -1.5 2.265625 -1.5 C 3.285156 -1.5 3.691406 -1.703125 3.691406 -2.332031 C 3.691406 -3.070312 3.074219 -3.597656 2.132812 -3.597656 C 0.996094 -3.597656 0.226562 -2.84375 0.226562 -1.742188 C 0.226562 -0.597656 0.941406 0.0429688 2.234375 0.0429688 C 3.015625 0.0429688 3.457031 -0.183594 3.457031 -0.539062 C 3.457031 -0.675781 3.378906 -0.828125 3.226562 -0.992188 Z M 1.34375 -2.128906 C 1.414062 -2.613281 1.675781 -2.886719 2.066406 -2.886719 C 2.402344 -2.886719 2.625 -2.671875 2.625 -2.347656 C 2.625 -2.125 2.484375 -2.066406 2.121094 -2.066406 C 1.960938 -2.066406 1.699219 -2.085938 1.34375 -2.128906 Z M 1.34375 -2.128906 "/></g></g></g><g fill="#805fd1" fill-opacity="1"><g transform="translate(91.646631, 30.314833)"><g><path d="M 0.457031 -0.855469 C 0.328125 -0.667969 0.261719 -0.5 0.261719 -0.355469 C 0.261719 -0.0625 0.46875 0.0859375 0.875 0.0859375 C 1.800781 0.0859375 2.441406 -0.449219 2.441406 -1.109375 C 2.441406 -1.375 2.347656 -1.472656 2.21875 -1.640625 C 2.179688 -1.691406 2.003906 -1.824219 1.957031 -1.867188 C 1.867188 -1.9375 1.722656 -2.042969 1.621094 -2.121094 C 1.410156 -2.277344 1.304688 -2.410156 1.304688 -2.523438 C 1.304688 -2.703125 1.5 -2.84375 1.8125 -2.84375 C 1.957031 -2.84375 2.101562 -2.808594 2.253906 -2.738281 C 2.394531 -2.902344 2.464844 -3.070312 2.464844 -3.226562 C 2.464844 -3.488281 2.28125 -3.625 1.9375 -3.625 C 1.015625 -3.625 0.3125 -3.039062 0.3125 -2.359375 C 0.3125 -1.988281 0.484375 -1.785156 0.917969 -1.5 C 1.011719 -1.4375 1.3125 -1.238281 1.367188 -1.191406 C 1.429688 -1.125 1.472656 -1.0625 1.472656 -0.984375 C 1.472656 -0.820312 1.300781 -0.703125 1.023438 -0.703125 C 0.832031 -0.703125 0.644531 -0.753906 0.457031 -0.855469 Z M 0.457031 -0.855469 "/></g></g></g><g fill="#805fd1" fill-opacity="1"><g transform="translate(94.354581, 30.314833)"><g><path d="M 1.777344 -3.394531 C 1.8125 -3.792969 1.828125 -4.015625 1.828125 -4.050781 C 1.828125 -4.390625 1.671875 -4.542969 1.328125 -4.542969 C 1.105469 -4.542969 0.855469 -4.480469 0.570312 -4.34375 C 0.667969 -4.148438 0.71875 -3.882812 0.71875 -3.554688 C 0.71875 -3.535156 0.71875 -3.503906 0.714844 -3.457031 C 0.710938 -3.40625 0.710938 -3.375 0.710938 -3.347656 C 0.566406 -3.335938 0.472656 -3.335938 0.417969 -3.335938 C 0.3125 -3.335938 0.222656 -3.339844 0.144531 -3.355469 C 0.0585938 -3.175781 0.015625 -3.027344 0.015625 -2.914062 C 0.015625 -2.710938 0.125 -2.636719 0.375 -2.636719 C 0.460938 -2.636719 0.554688 -2.644531 0.667969 -2.660156 C 0.664062 -2.453125 0.648438 -2.179688 0.621094 -1.835938 C 0.597656 -1.492188 0.582031 -1.25 0.582031 -1.113281 C 0.582031 -0.339844 0.929688 0.0351562 1.65625 0.0351562 C 2.226562 0.0351562 2.554688 -0.171875 2.554688 -0.496094 C 2.554688 -0.625 2.503906 -0.757812 2.394531 -0.894531 C 2.300781 -0.820312 2.203125 -0.785156 2.105469 -0.785156 C 1.820312 -0.785156 1.679688 -1.046875 1.679688 -1.570312 C 1.679688 -1.847656 1.695312 -2.21875 1.734375 -2.6875 C 1.875 -2.691406 2.136719 -2.707031 2.167969 -2.707031 C 2.339844 -2.707031 2.476562 -2.691406 2.574219 -2.652344 C 2.703125 -2.847656 2.765625 -3.019531 2.765625 -3.164062 C 2.765625 -3.359375 2.671875 -3.433594 2.441406 -3.433594 C 2.382812 -3.433594 2.210938 -3.421875 2.066406 -3.410156 C 1.964844 -3.402344 1.871094 -3.398438 1.777344 -3.394531 Z M 1.777344 -3.394531 "/></g></g></g><g fill="#805fd1" fill-opacity="1"><g transform="translate(97.213386, 30.314833)"><g><path d="M 1.152344 -5.253906 C 0.785156 -5.253906 0.488281 -4.964844 0.488281 -4.609375 C 0.488281 -4.285156 0.714844 -4.066406 1.050781 -4.066406 C 1.4375 -4.066406 1.734375 -4.34375 1.734375 -4.691406 C 1.734375 -5.015625 1.492188 -5.253906 1.152344 -5.253906 Z M 1.785156 -0.199219 C 1.667969 -0.484375 1.609375 -0.871094 1.609375 -1.359375 C 1.609375 -1.605469 1.621094 -1.914062 1.644531 -2.285156 C 1.667969 -2.65625 1.679688 -2.898438 1.679688 -3.019531 C 1.679688 -3.398438 1.523438 -3.554688 1.167969 -3.554688 C 0.886719 -3.554688 0.609375 -3.488281 0.335938 -3.355469 C 0.449219 -3.117188 0.503906 -2.714844 0.503906 -2.152344 C 0.503906 -1.871094 0.492188 -1.550781 0.476562 -1.191406 C 0.453125 -0.832031 0.441406 -0.609375 0.441406 -0.535156 C 0.441406 -0.148438 0.574219 0 0.945312 0 C 1.230469 0 1.507812 -0.0664062 1.785156 -0.199219 Z M 1.785156 -0.199219 "/></g></g></g><g fill="#805fd1" fill-opacity="1"><g transform="translate(99.325294, 30.314833)"><g><path d="M 3.660156 -3.789062 C 3.53125 -3.65625 3.21875 -3.523438 2.722656 -3.398438 C 2.441406 -3.539062 2.148438 -3.609375 1.847656 -3.609375 C 0.945312 -3.609375 0.296875 -3.054688 0.296875 -2.347656 C 0.296875 -1.9375 0.515625 -1.613281 0.953125 -1.371094 C 0.722656 -1.15625 0.605469 -0.957031 0.605469 -0.785156 C 0.605469 -0.636719 0.667969 -0.527344 0.789062 -0.449219 C 0.320312 -0.257812 0.0703125 0.0820312 0.0703125 0.503906 C 0.0703125 1.191406 0.691406 1.609375 1.769531 1.609375 C 2.9375 1.609375 3.699219 1.0625 3.699219 0.328125 C 3.699219 -0.25 3.328125 -0.460938 2.324219 -0.632812 C 2.140625 -0.664062 1.8125 -0.71875 1.707031 -0.765625 C 1.582031 -0.820312 1.507812 -0.863281 1.507812 -0.992188 C 1.507812 -1.050781 1.542969 -1.121094 1.609375 -1.203125 C 1.664062 -1.191406 1.753906 -1.1875 1.875 -1.1875 C 2.835938 -1.1875 3.417969 -1.636719 3.417969 -2.359375 C 3.417969 -2.582031 3.347656 -2.777344 3.207031 -2.953125 C 3.664062 -3.027344 3.859375 -3.148438 3.859375 -3.398438 C 3.859375 -3.53125 3.792969 -3.664062 3.660156 -3.789062 Z M 1.875 -2.898438 C 2.242188 -2.898438 2.472656 -2.691406 2.472656 -2.382812 C 2.472656 -2.089844 2.226562 -1.871094 1.871094 -1.871094 C 1.519531 -1.871094 1.265625 -2.089844 1.265625 -2.382812 C 1.265625 -2.691406 1.503906 -2.898438 1.875 -2.898438 Z M 1.5 -0.09375 C 1.558594 -0.078125 1.636719 -0.0585938 1.746094 -0.03125 C 1.945312 0.015625 2.300781 0.0976562 2.425781 0.164062 C 2.566406 0.238281 2.644531 0.308594 2.644531 0.457031 C 2.644531 0.71875 2.351562 0.902344 1.875 0.902344 C 1.386719 0.902344 1.082031 0.695312 1.082031 0.390625 C 1.082031 0.191406 1.222656 0.03125 1.5 -0.09375 Z M 1.5 -0.09375 "/></g></g></g><g fill="#805fd1" fill-opacity="1"><g transform="translate(103.092877, 30.314833)"><g><path d="M 3.640625 -0.242188 C 3.480469 -0.460938 3.402344 -0.855469 3.402344 -1.421875 C 3.402344 -1.582031 3.40625 -1.75 3.410156 -1.925781 C 3.414062 -2.097656 3.417969 -2.1875 3.417969 -2.195312 C 3.417969 -3.171875 2.949219 -3.605469 1.882812 -3.605469 C 1.015625 -3.605469 0.496094 -3.3125 0.496094 -2.898438 C 0.496094 -2.726562 0.59375 -2.59375 0.785156 -2.503906 C 0.972656 -2.765625 1.265625 -2.890625 1.664062 -2.890625 C 2.136719 -2.890625 2.410156 -2.675781 2.410156 -2.320312 L 2.410156 -2.191406 C 2.195312 -2.21875 2.019531 -2.234375 1.875 -2.234375 C 0.851562 -2.234375 0.234375 -1.753906 0.234375 -1 C 0.234375 -0.378906 0.691406 0.0429688 1.386719 0.0429688 C 1.785156 0.0429688 2.097656 -0.09375 2.433594 -0.398438 C 2.464844 -0.132812 2.617188 0 2.890625 0 C 3.113281 0 3.363281 -0.0820312 3.640625 -0.242188 Z M 2.394531 -1.386719 C 2.394531 -1.175781 2.398438 -1.039062 2.402344 -0.960938 C 2.207031 -0.765625 1.996094 -0.667969 1.761719 -0.667969 C 1.441406 -0.667969 1.25 -0.84375 1.25 -1.121094 C 1.25 -1.457031 1.523438 -1.648438 2.011719 -1.648438 C 2.128906 -1.648438 2.257812 -1.636719 2.394531 -1.617188 Z M 2.394531 -1.386719 "/></g></g></g><g fill="#805fd1" fill-opacity="1"><g transform="translate(106.974522, 30.314833)"><g><path d="M 2.914062 -1.097656 C 2.667969 -0.933594 2.414062 -0.855469 2.152344 -0.855469 C 1.664062 -0.855469 1.335938 -1.191406 1.335938 -1.707031 C 1.335938 -2.25 1.753906 -2.671875 2.273438 -2.671875 C 2.453125 -2.671875 2.625 -2.628906 2.777344 -2.539062 C 2.964844 -2.734375 3.058594 -2.925781 3.058594 -3.113281 C 3.058594 -3.421875 2.796875 -3.597656 2.3125 -3.597656 C 1.808594 -3.597656 1.304688 -3.421875 0.96875 -3.144531 C 0.472656 -2.726562 0.222656 -2.199219 0.222656 -1.5625 C 0.222656 -0.582031 0.949219 0.078125 2.054688 0.078125 C 2.742188 0.078125 3.144531 -0.175781 3.144531 -0.5625 C 3.144531 -0.730469 3.066406 -0.910156 2.914062 -1.097656 Z M 2.914062 -1.097656 "/></g></g></g><g fill="#805fd1" fill-opacity="1"><g transform="translate(110.245407, 30.314833)"><g><path d="M 1.152344 -5.253906 C 0.785156 -5.253906 0.488281 -4.964844 0.488281 -4.609375 C 0.488281 -4.285156 0.714844 -4.066406 1.050781 -4.066406 C 1.4375 -4.066406 1.734375 -4.34375 1.734375 -4.691406 C 1.734375 -5.015625 1.492188 -5.253906 1.152344 -5.253906 Z M 1.785156 -0.199219 C 1.667969 -0.484375 1.609375 -0.871094 1.609375 -1.359375 C 1.609375 -1.605469 1.621094 -1.914062 1.644531 -2.285156 C 1.667969 -2.65625 1.679688 -2.898438 1.679688 -3.019531 C 1.679688 -3.398438 1.523438 -3.554688 1.167969 -3.554688 C 0.886719 -3.554688 0.609375 -3.488281 0.335938 -3.355469 C 0.449219 -3.117188 0.503906 -2.714844 0.503906 -2.152344 C 0.503906 -1.871094 0.492188 -1.550781 0.476562 -1.191406 C 0.453125 -0.832031 0.441406 -0.609375 0.441406 -0.535156 C 0.441406 -0.148438 0.574219 0 0.945312 0 C 1.230469 0 1.507812 -0.0664062 1.785156 -0.199219 Z M 1.785156 -0.199219 "/></g></g></g><g fill="#805fd1" fill-opacity="1"><g transform="translate(112.357314, 30.314833)"><g><path d="M 3.113281 -4.8125 C 3.113281 -5.015625 2.976562 -5.148438 2.765625 -5.148438 C 2.605469 -5.148438 2.484375 -5.054688 2.367188 -4.921875 C 2.332031 -4.882812 2.28125 -4.828125 2.21875 -4.757812 C 2.15625 -4.683594 2.101562 -4.625 2.0625 -4.578125 C 1.90625 -4.417969 1.683594 -4.238281 1.574219 -4.132812 C 1.53125 -4.085938 1.507812 -4.042969 1.507812 -4.003906 C 1.507812 -3.917969 1.566406 -3.875 1.683594 -3.875 C 1.753906 -3.875 1.875 -3.910156 2.058594 -3.972656 C 2.234375 -4.035156 2.4375 -4.136719 2.664062 -4.265625 C 2.960938 -4.4375 3.113281 -4.617188 3.113281 -4.8125 Z M 4.234375 -1.855469 C 4.234375 -2.882812 3.441406 -3.625 2.3125 -3.625 C 1.09375 -3.625 0.226562 -2.824219 0.226562 -1.722656 C 0.226562 -0.664062 1.027344 0.0859375 2.191406 0.0859375 C 2.851562 0.0859375 3.386719 -0.152344 3.789062 -0.625 C 4.089844 -0.976562 4.234375 -1.386719 4.234375 -1.855469 Z M 1.351562 -1.746094 C 1.351562 -2.320312 1.714844 -2.703125 2.242188 -2.703125 C 2.769531 -2.703125 3.128906 -2.339844 3.128906 -1.785156 C 3.128906 -1.242188 2.742188 -0.855469 2.242188 -0.855469 C 1.707031 -0.855469 1.351562 -1.214844 1.351562 -1.746094 Z M 1.351562 -1.746094 "/></g></g></g><g fill="#805fd1" fill-opacity="1"><g transform="translate(116.820285, 30.314833)"><g><path d="M 4.1875 -0.199219 C 4.070312 -0.402344 4.011719 -0.789062 4.011719 -1.359375 C 4.011719 -1.414062 4.015625 -1.511719 4.019531 -1.664062 C 4.023438 -1.8125 4.027344 -1.9375 4.027344 -2.035156 C 4.027344 -3.109375 3.65625 -3.589844 2.769531 -3.589844 C 2.378906 -3.589844 1.988281 -3.429688 1.601562 -3.105469 C 1.570312 -3.417969 1.339844 -3.589844 0.929688 -3.589844 C 0.757812 -3.589844 0.558594 -3.558594 0.34375 -3.492188 C 0.457031 -3.253906 0.511719 -2.851562 0.511719 -2.289062 C 0.511719 -2.003906 0.496094 -1.675781 0.472656 -1.300781 C 0.441406 -0.921875 0.425781 -0.6875 0.425781 -0.597656 C 0.425781 -0.15625 0.550781 0 0.9375 0 C 1.214844 0 1.492188 -0.0625 1.761719 -0.191406 C 1.644531 -0.441406 1.585938 -0.859375 1.585938 -1.433594 C 1.585938 -1.515625 1.597656 -1.859375 1.621094 -2.464844 C 1.867188 -2.632812 2.089844 -2.714844 2.296875 -2.714844 C 2.742188 -2.714844 2.890625 -2.441406 2.890625 -1.761719 C 2.890625 -1.605469 2.886719 -1.382812 2.871094 -1.105469 C 2.851562 -0.824219 2.84375 -0.625 2.84375 -0.503906 C 2.84375 -0.140625 2.992188 0 3.363281 0 C 3.648438 0 3.921875 -0.0625 4.1875 -0.191406 Z M 4.1875 -0.199219 "/></g></g></g><g fill="#805fd1" fill-opacity="1"><g transform="translate(121.283257, 30.314833)"><g/></g></g><g fill="#805fd1" fill-opacity="1"><g transform="translate(123.490825, 30.314833)"><g><path d="M 6.339844 -0.199219 C 6.21875 -0.402344 6.15625 -0.773438 6.15625 -1.3125 C 6.15625 -1.40625 6.160156 -1.546875 6.171875 -1.738281 C 6.183594 -1.929688 6.1875 -2.074219 6.1875 -2.175781 C 6.1875 -3.097656 5.769531 -3.570312 4.964844 -3.570312 C 4.535156 -3.570312 4.125 -3.390625 3.730469 -3.027344 C 3.484375 -3.410156 3.183594 -3.570312 2.722656 -3.570312 C 2.320312 -3.570312 1.9375 -3.410156 1.570312 -3.089844 C 1.539062 -3.417969 1.332031 -3.570312 0.921875 -3.570312 C 0.746094 -3.570312 0.550781 -3.535156 0.34375 -3.46875 C 0.457031 -3.203125 0.511719 -2.808594 0.511719 -2.289062 C 0.511719 -2.003906 0.496094 -1.667969 0.472656 -1.277344 C 0.441406 -0.886719 0.425781 -0.640625 0.425781 -0.535156 C 0.425781 -0.148438 0.566406 0.0078125 0.921875 0.0078125 C 1.199219 0.0078125 1.472656 -0.0585938 1.734375 -0.191406 C 1.621094 -0.421875 1.5625 -0.839844 1.5625 -1.433594 C 1.5625 -1.71875 1.574219 -2.066406 1.59375 -2.480469 C 1.816406 -2.636719 2.023438 -2.714844 2.210938 -2.714844 C 2.640625 -2.714844 2.777344 -2.441406 2.777344 -1.761719 C 2.777344 -1.585938 2.769531 -1.367188 2.761719 -1.097656 C 2.746094 -0.828125 2.738281 -0.648438 2.738281 -0.554688 C 2.738281 -0.144531 2.863281 0.0078125 3.234375 0.0078125 C 3.511719 0.0078125 3.78125 -0.0585938 4.050781 -0.191406 C 3.90625 -0.515625 3.875 -0.839844 3.875 -1.359375 C 3.875 -1.605469 3.882812 -1.976562 3.898438 -2.480469 C 4.136719 -2.636719 4.332031 -2.714844 4.484375 -2.714844 C 4.917969 -2.714844 5.074219 -2.445312 5.074219 -1.800781 C 5.074219 -1.648438 5.066406 -1.429688 5.054688 -1.144531 C 5.035156 -0.855469 5.027344 -0.640625 5.027344 -0.503906 C 5.027344 -0.140625 5.167969 0 5.523438 0 C 5.804688 0 6.074219 -0.0625 6.339844 -0.191406 Z M 6.339844 -0.199219 "/></g></g></g><g fill="#805fd1" fill-opacity="1"><g transform="translate(130.087779, 30.314833)"><g><path d="M 4.042969 -0.214844 C 3.921875 -0.4375 3.859375 -0.859375 3.859375 -1.480469 C 3.859375 -1.746094 3.867188 -2.046875 3.882812 -2.371094 C 3.898438 -2.695312 3.90625 -2.882812 3.90625 -2.9375 C 3.90625 -3.398438 3.78125 -3.5625 3.386719 -3.5625 C 3.152344 -3.5625 2.875 -3.488281 2.546875 -3.339844 C 2.695312 -3.082031 2.765625 -2.535156 2.765625 -1.707031 C 2.765625 -1.617188 2.765625 -1.46875 2.753906 -1.273438 C 2.53125 -0.984375 2.289062 -0.839844 2.027344 -0.839844 C 1.628906 -0.839844 1.507812 -1.101562 1.507812 -1.761719 C 1.507812 -1.9375 1.519531 -2.164062 1.539062 -2.453125 C 1.558594 -2.742188 1.5625 -2.945312 1.5625 -3.066406 C 1.5625 -3.417969 1.414062 -3.5625 1.046875 -3.5625 C 0.78125 -3.5625 0.511719 -3.496094 0.234375 -3.363281 C 0.351562 -3.167969 0.414062 -2.820312 0.414062 -2.320312 C 0.414062 -2.1875 0.40625 -2.003906 0.394531 -1.765625 C 0.382812 -1.53125 0.375 -1.367188 0.375 -1.265625 C 0.375 -0.382812 0.792969 0.078125 1.578125 0.078125 C 2.066406 0.078125 2.472656 -0.144531 2.792969 -0.589844 L 2.792969 -0.503906 C 2.792969 -0.140625 2.929688 0.0078125 3.277344 0.0078125 C 3.507812 0.0078125 3.761719 -0.0664062 4.042969 -0.214844 Z M 4.042969 -0.214844 "/></g></g></g><g fill="#805fd1" fill-opacity="1"><g transform="translate(134.396221, 30.314833)"><g><path d="M 0.457031 -0.855469 C 0.328125 -0.667969 0.261719 -0.5 0.261719 -0.355469 C 0.261719 -0.0625 0.46875 0.0859375 0.875 0.0859375 C 1.800781 0.0859375 2.441406 -0.449219 2.441406 -1.109375 C 2.441406 -1.375 2.347656 -1.472656 2.21875 -1.640625 C 2.179688 -1.691406 2.003906 -1.824219 1.957031 -1.867188 C 1.867188 -1.9375 1.722656 -2.042969 1.621094 -2.121094 C 1.410156 -2.277344 1.304688 -2.410156 1.304688 -2.523438 C 1.304688 -2.703125 1.5 -2.84375 1.8125 -2.84375 C 1.957031 -2.84375 2.101562 -2.808594 2.253906 -2.738281 C 2.394531 -2.902344 2.464844 -3.070312 2.464844 -3.226562 C 2.464844 -3.488281 2.28125 -3.625 1.9375 -3.625 C 1.015625 -3.625 0.3125 -3.039062 0.3125 -2.359375 C 0.3125 -1.988281 0.484375 -1.785156 0.917969 -1.5 C 1.011719 -1.4375 1.3125 -1.238281 1.367188 -1.191406 C 1.429688 -1.125 1.472656 -1.0625 1.472656 -0.984375 C 1.472656 -0.820312 1.300781 -0.703125 1.023438 -0.703125 C 0.832031 -0.703125 0.644531 -0.753906 0.457031 -0.855469 Z M 0.457031 -0.855469 "/></g></g></g><g fill="#805fd1" fill-opacity="1"><g transform="translate(137.104172, 30.314833)"><g><path d="M 1.152344 -5.253906 C 0.785156 -5.253906 0.488281 -4.964844 0.488281 -4.609375 C 0.488281 -4.285156 0.714844 -4.066406 1.050781 -4.066406 C 1.4375 -4.066406 1.734375 -4.34375 1.734375 -4.691406 C 1.734375 -5.015625 1.492188 -5.253906 1.152344 -5.253906 Z M 1.785156 -0.199219 C 1.667969 -0.484375 1.609375 -0.871094 1.609375 -1.359375 C 1.609375 -1.605469 1.621094 -1.914062 1.644531 -2.285156 C 1.667969 -2.65625 1.679688 -2.898438 1.679688 -3.019531 C 1.679688 -3.398438 1.523438 -3.554688 1.167969 -3.554688 C 0.886719 -3.554688 0.609375 -3.488281 0.335938 -3.355469 C 0.449219 -3.117188 0.503906 -2.714844 0.503906 -2.152344 C 0.503906 -1.871094 0.492188 -1.550781 0.476562 -1.191406 C 0.453125 -0.832031 0.441406 -0.609375 0.441406 -0.535156 C 0.441406 -0.148438 0.574219 0 0.945312 0 C 1.230469 0 1.507812 -0.0664062 1.785156 -0.199219 Z M 1.785156 -0.199219 "/></g></g></g><g fill="#805fd1" fill-opacity="1"><g transform="translate(139.216079, 30.314833)"><g><path d="M 2.914062 -1.097656 C 2.667969 -0.933594 2.414062 -0.855469 2.152344 -0.855469 C 1.664062 -0.855469 1.335938 -1.191406 1.335938 -1.707031 C 1.335938 -2.25 1.753906 -2.671875 2.273438 -2.671875 C 2.453125 -2.671875 2.625 -2.628906 2.777344 -2.539062 C 2.964844 -2.734375 3.058594 -2.925781 3.058594 -3.113281 C 3.058594 -3.421875 2.796875 -3.597656 2.3125 -3.597656 C 1.808594 -3.597656 1.304688 -3.421875 0.96875 -3.144531 C 0.472656 -2.726562 0.222656 -2.199219 0.222656 -1.5625 C 0.222656 -0.582031 0.949219 0.078125 2.054688 0.078125 C 2.742188 0.078125 3.144531 -0.175781 3.144531 -0.5625 C 3.144531 -0.730469 3.066406 -0.910156 2.914062 -1.097656 Z M 2.914062 -1.097656 "/></g></g></g><g fill="#805fd1" fill-opacity="1"><g transform="translate(142.486963, 30.314833)"><g><path d="M 3.640625 -0.242188 C 3.480469 -0.460938 3.402344 -0.855469 3.402344 -1.421875 C 3.402344 -1.582031 3.40625 -1.75 3.410156 -1.925781 C 3.414062 -2.097656 3.417969 -2.1875 3.417969 -2.195312 C 3.417969 -3.171875 2.949219 -3.605469 1.882812 -3.605469 C 1.015625 -3.605469 0.496094 -3.3125 0.496094 -2.898438 C 0.496094 -2.726562 0.59375 -2.59375 0.785156 -2.503906 C 0.972656 -2.765625 1.265625 -2.890625 1.664062 -2.890625 C 2.136719 -2.890625 2.410156 -2.675781 2.410156 -2.320312 L 2.410156 -2.191406 C 2.195312 -2.21875 2.019531 -2.234375 1.875 -2.234375 C 0.851562 -2.234375 0.234375 -1.753906 0.234375 -1 C 0.234375 -0.378906 0.691406 0.0429688 1.386719 0.0429688 C 1.785156 0.0429688 2.097656 -0.09375 2.433594 -0.398438 C 2.464844 -0.132812 2.617188 0 2.890625 0 C 3.113281 0 3.363281 -0.0820312 3.640625 -0.242188 Z M 2.394531 -1.386719 C 2.394531 -1.175781 2.398438 -1.039062 2.402344 -0.960938 C 2.207031 -0.765625 1.996094 -0.667969 1.761719 -0.667969 C 1.441406 -0.667969 1.25 -0.84375 1.25 -1.121094 C 1.25 -1.457031 1.523438 -1.648438 2.011719 -1.648438 C 2.128906 -1.648438 2.257812 -1.636719 2.394531 -1.617188 Z M 2.394531 -1.386719 "/></g></g></g><g fill="#805fd1" fill-opacity="1"><g transform="translate(146.368608, 30.314833)"><g><path d="M 1.792969 -0.199219 C 1.632812 -0.527344 1.59375 -1.101562 1.59375 -2.132812 C 1.59375 -2.59375 1.609375 -3.101562 1.632812 -3.65625 C 1.660156 -4.210938 1.671875 -4.53125 1.671875 -4.621094 C 1.671875 -5.03125 1.527344 -5.1875 1.160156 -5.1875 C 0.890625 -5.1875 0.613281 -5.117188 0.328125 -4.984375 C 0.484375 -4.683594 0.535156 -4.207031 0.535156 -3.398438 C 0.535156 -2.863281 0.519531 -2.296875 0.492188 -1.691406 C 0.464844 -1.085938 0.449219 -0.746094 0.449219 -0.675781 C 0.449219 -0.160156 0.550781 0 0.960938 0 C 1.195312 0 1.472656 -0.0664062 1.792969 -0.199219 Z M 1.792969 -0.199219 "/></g></g></g><g fill="#805fd1" fill-opacity="1"><g transform="translate(148.501468, 30.314833)"><g/></g></g></svg>